<svg width="19" height="19" viewBox="0 0 19 19" fill="none" xmlns="http://www.w3.org/2000/svg">
<path d="M15.0412 0.791992H3.95822C2.90882 0.793249 1.90276 1.21068 1.16072 1.95272C0.418686 2.69475 0.00125702 3.70081 0 4.75021L0 14.2499C0.00125702 15.2993 0.418686 16.3054 1.16072 17.0474C1.90276 17.7895 2.90882 18.2069 3.95822 18.2082H15.0412C16.0906 18.2069 17.0967 17.7895 17.8387 17.0474C18.5808 16.3054 18.9982 15.2993 18.9995 14.2499V4.75021C18.9982 3.70081 18.5808 2.69475 17.8387 1.95272C17.0967 1.21068 16.0906 0.793249 15.0412 0.791992ZM3.95822 2.37528H15.0412C15.5153 2.37621 15.9782 2.51897 16.3704 2.7852C16.7626 3.05142 17.0661 3.42892 17.242 3.86911L11.1796 9.93231C10.7334 10.3767 10.1294 10.6262 9.49973 10.6262C8.87004 10.6262 8.26601 10.3767 7.81986 9.93231L1.75745 3.86911C1.93331 3.42892 2.23688 3.05142 2.62909 2.7852C3.02129 2.51897 3.48419 2.37621 3.95822 2.37528ZM15.0412 16.6249H3.95822C3.32835 16.6249 2.72428 16.3747 2.27889 15.9293C1.8335 15.4839 1.58329 14.8798 1.58329 14.2499V5.93768L6.70047 11.0517C7.44353 11.7929 8.45021 12.2091 9.49973 12.2091C10.5492 12.2091 11.5559 11.7929 12.299 11.0517L17.4162 5.93768V14.2499C17.4162 14.8798 17.1659 15.4839 16.7206 15.9293C16.2752 16.3747 15.6711 16.6249 15.0412 16.6249Z" fill="white"/>
</svg>
