<svg width="19" height="19" viewBox="0 0 19 19" fill="none" xmlns="http://www.w3.org/2000/svg">
<path d="M18.2823 13.2743C18.7418 13.7351 18.9999 14.3593 18.9999 15.0101C18.9999 15.6609 18.7418 16.2851 18.2823 16.7459L17.5591 17.5785C11.0639 23.7937 -4.73823 7.99631 1.38265 1.48133L2.29456 0.688362C2.75578 0.241563 3.37436 -0.00568817 4.01648 9.936e-05C4.6586 0.00588689 5.27262 0.264248 5.72571 0.719288C5.75029 0.743077 7.21886 2.65253 7.21886 2.65253C7.65334 3.1113 7.89509 3.71937 7.89421 4.35122C7.89332 4.98307 7.64987 5.59046 7.2141 6.048L6.29585 7.20256C6.80414 8.43722 7.55132 9.55931 8.49449 10.5044C9.43766 11.4495 10.5582 12.1989 11.7919 12.7097L12.9536 11.7859C13.4102 11.349 14.0176 11.1047 14.6496 11.1038C15.2816 11.1029 15.8896 11.3455 16.3475 11.7811C16.3475 11.7811 18.2577 13.2505 18.2823 13.2743ZM17.192 14.4272C17.192 14.4272 15.2944 12.9666 15.2698 12.9428C15.1065 12.7808 14.8857 12.69 14.6557 12.69C14.4256 12.69 14.2049 12.7808 14.0415 12.9428C14.0201 12.9634 12.4207 14.2385 12.4207 14.2385C12.3129 14.3243 12.1846 14.3805 12.0485 14.4017C11.9124 14.4228 11.7731 14.4081 11.6444 14.3591C10.0453 13.7641 8.59285 12.8323 7.38546 11.6268C6.17806 10.4214 5.24396 8.97038 4.64649 7.37225C4.59352 7.24177 4.57625 7.09954 4.59646 6.96018C4.61666 6.82082 4.67362 6.68935 4.76147 6.57929C4.76147 6.57929 6.03655 4.98226 6.05796 4.96164C6.21994 4.79828 6.31082 4.57754 6.31082 4.34749C6.31082 4.11744 6.21994 3.8967 6.05796 3.73334C6.03417 3.70955 4.57354 1.81041 4.57354 1.81041C4.40773 1.66173 4.19133 1.58211 3.9687 1.58786C3.74607 1.59361 3.53407 1.68429 3.37616 1.84133L2.46425 2.63429C-2.00965 8.01297 11.6864 20.9494 16.399 16.4977L17.1222 15.6643C17.2927 15.5078 17.3954 15.291 17.4084 15.0599C17.4214 14.8289 17.3438 14.6019 17.192 14.4272Z" fill="white"/>
</svg>
