<svg width="18" height="21" viewBox="0 0 18 21" fill="none" xmlns="http://www.w3.org/2000/svg">
<path d="M9 12C6.79845 12 5 10.2096 5 7.99483C5 5.78008 6.79845 4 9 4C11.2016 4 13 5.79043 13 8.00517C13 10.2199 11.2016 12 9 12ZM9 5.55239C7.65633 5.55239 6.55039 6.64942 6.55039 8.00517C6.55039 9.36093 7.64599 10.458 9 10.458C10.354 10.458 11.4496 9.36093 11.4496 8.00517C11.4496 6.64942 10.3437 5.55239 9 5.55239Z" fill="white"/>
<path d="M8.99704 21C7.57695 21 6.14727 20.4533 5.03424 19.3696C2.20366 16.5969 -0.924358 12.1743 0.255846 6.91213C1.32091 2.13808 5.41804 0 8.99704 0C8.99704 0 8.99704 0 9.00663 0C12.5856 0 16.6828 2.13808 17.7478 6.9219C18.9184 12.1841 15.7904 16.5969 12.9598 19.3696C11.8468 20.4533 10.4171 21 8.99704 21ZM8.99704 1.46443C6.20484 1.46443 2.61626 2.97768 1.66633 7.23431C0.630058 11.8326 3.47022 15.7964 6.04173 18.3054C7.70169 19.9358 10.302 19.9358 11.9619 18.3054C14.5238 15.7964 17.364 11.8326 16.3469 7.23431C15.3874 2.97768 11.7892 1.46443 8.99704 1.46443Z" fill="white"/>
</svg>
