<svg width="51" height="39" viewBox="0 0 51 39" fill="none" xmlns="http://www.w3.org/2000/svg">
<g clip-path="url(#clip0_858_1565)">
<path d="M15.1753 33.0656C15.0412 33.0656 14.9022 33.0675 14.7741 33.1011C14.4744 33.1812 14.3147 33.3926 14.3344 33.6998C14.3344 33.7077 14.3364 33.7146 14.3374 33.7215C15.331 33.5645 16.3129 33.3451 17.2829 33.0646C16.581 33.0646 15.8781 33.0646 15.1763 33.0646L15.1753 33.0656Z" fill="#000000"/>
<path d="M19.0603 31.2853C19.0129 31.4948 18.9784 31.7111 18.9607 31.9344H20.1131C20.2491 31.4404 20.4285 30.9949 20.6454 30.6017C20.4709 30.6837 20.2964 30.7647 20.12 30.8437C19.7681 30.9998 19.4142 31.147 19.0612 31.2863L19.0603 31.2853Z" fill="#000000"/>
<path d="M17.4733 31.9611C17.7099 31.9818 17.8055 31.9097 17.8538 31.724C17.6182 31.803 17.3816 31.8781 17.145 31.9502C17.2544 31.9502 17.3639 31.9512 17.4733 31.9611Z" fill="#000000"/>
<path d="M22.4042 28.8749C22.7502 28.7109 23.1248 28.6042 23.5241 28.5568C23.2964 28.2002 23.0696 27.8425 22.8419 27.4859C22.6359 27.5343 22.4308 27.5926 22.2278 27.6637C21.9054 27.7763 21.6136 27.6242 21.5111 27.3328C21.4145 27.0571 21.5466 26.7726 21.8404 26.6373C21.9291 26.5968 22.0247 26.5701 22.1174 26.5385C22.1509 26.5276 22.1844 26.5177 22.2189 26.5079C21.9991 26.1631 21.7802 25.8183 21.5604 25.4735C21.2016 25.6029 20.8595 25.757 20.5342 25.9359C21.1592 26.9188 21.7822 27.8988 22.4042 28.8759V28.8749Z" fill="#000000"/>
<path d="M15.3724 37.4658C11.1463 38.2274 6.87385 37.9884 2.56396 36.7851C1.18188 36.3988 0.65349 34.8181 1.60971 33.6159C2.09176 33.0705 2.78675 32.8473 3.61678 33.0804C5.11913 33.5022 6.64514 33.7996 8.20072 33.931C9.91009 34.0752 11.5859 34.0555 13.2293 33.8717C13.2066 33.6929 13.2145 33.5092 13.2559 33.3244C13.3042 33.1061 13.388 32.9095 13.4984 32.7366C10.4533 33.1407 7.36181 32.9233 4.22305 32.0925C4.06335 32.05 3.90365 32.0036 3.74198 31.967C3.58327 31.9305 3.4216 31.9048 3.23725 31.8692C3.40582 31.3802 3.56947 30.904 3.73409 30.4239C5.62386 31.3763 7.13409 30.1502 7.48307 29.0013C7.85668 27.7713 7.27211 26.0662 5.35277 25.7125C6.14239 23.4156 6.93004 21.1237 7.72656 18.809C7.95132 18.8702 8.15242 18.9305 8.35451 18.9799C8.6946 19.0638 8.97063 18.9196 9.05935 18.6193C9.153 18.3041 8.99527 18.0305 8.65123 17.9169C8.47773 17.8596 8.30127 17.8102 8.09229 17.747C8.93317 15.2999 9.76912 12.8667 10.6317 10.3554C11.4391 11.6239 12.2139 12.8429 12.9996 14.0778C12.2218 14.4582 11.7121 15.0361 11.5258 15.865C11.375 16.5358 11.4874 17.171 11.8452 17.7568C12.4801 18.7961 14.1214 19.5074 15.6819 18.3012C16.2783 19.2397 16.8727 20.1753 17.4918 21.1493C16.9841 21.2768 16.5129 21.3914 16.0437 21.5129C15.6168 21.6226 15.4167 21.9723 15.5794 22.3151C15.6977 22.565 15.9431 22.6757 16.2566 22.6016C16.8136 22.4692 17.3666 22.321 17.9236 22.1936C18.0064 22.1748 18.1543 22.2074 18.1917 22.2667C18.7773 23.1815 19.3619 24.0973 19.9445 25.0121C20.2777 24.8244 20.6138 24.6604 20.9529 24.5211C18.0508 19.9609 15.1506 15.4007 12.2523 10.8385C11.8137 10.1479 11.3888 9.44846 10.958 8.75297C10.7707 8.6028 10.5834 8.45363 10.3961 8.30347C10.2462 8.49216 10.0964 8.67986 9.94656 8.86855C9.92783 8.94759 9.91699 9.02958 9.89037 9.10664C8.58222 12.916 7.27309 16.7245 5.96396 20.5339C4.66961 24.2988 3.37527 28.0638 2.07303 31.8258C2.03064 31.9473 1.92122 32.0816 1.80785 32.136C0.612087 32.705 -0.0868402 33.8648 0.00779591 35.155C0.102432 36.4423 0.974859 37.4934 2.26822 37.857C7.03551 39.1966 11.7831 39.3576 16.508 38.3588C16.0723 38.1376 15.6898 37.8382 15.3714 37.4687L15.3724 37.4658ZM13.7419 15.2327C14.1293 15.8699 14.5295 16.4992 14.9426 17.1196C15.0638 17.3014 15.0027 17.3972 14.8686 17.5079C14.3639 17.9238 13.6216 17.9268 13.106 17.5148C12.2918 16.8628 12.4317 15.5963 13.3653 15.1389C13.5289 15.0588 13.6305 15.048 13.7429 15.2327H13.7419ZM4.18263 29.0971C4.43302 28.4036 4.67257 27.7061 4.9062 27.0067C4.95352 26.8654 5.02351 26.7982 5.16251 26.8368C5.43952 26.9148 5.71455 27.0027 5.99057 27.0867C6.55248 27.6232 6.65697 28.4777 6.20942 29.0912C5.77863 29.681 4.92493 29.8321 4.30388 29.435C4.16784 29.3481 4.12348 29.2621 4.18362 29.0961L4.18263 29.0971Z" fill="#000000"/>
<path d="M15.1969 28.7049C14.5906 28.2188 14.491 27.3297 14.9741 26.7251C15.467 26.1086 16.37 26.0088 16.9733 26.5038C17.1754 26.6688 17.3173 26.8831 17.4001 27.1153C17.6466 26.814 17.9177 26.5285 18.2124 26.2588C18.0665 26.0227 17.8782 25.8063 17.6505 25.6245C16.5701 24.7621 14.9731 24.9449 14.1115 26.0316C13.246 27.1232 13.4234 28.7078 14.5088 29.5762C14.91 29.8973 15.3802 30.0741 15.8564 30.1146C15.9658 29.7293 16.0969 29.3589 16.2517 29.0032C15.8869 29.0487 15.5064 28.9538 15.1959 28.7049H15.1969Z" fill="#000000"/>
<path d="M18.0451 29.1742C18.4423 28.6733 18.6178 28.0637 18.5882 27.468C17.9268 28.1941 17.4181 29.0329 17.0918 29.9101C17.4536 29.7511 17.7838 29.5051 18.046 29.1742H18.0451Z" fill="#000000"/>
<path d="M12.3629 21.2205C11.2736 20.3492 9.6953 20.527 8.83076 21.6177C7.9603 22.7152 8.1338 24.2929 9.21818 25.1584C10.3065 26.0267 11.8985 25.8489 12.7552 24.7642C13.6217 23.6656 13.4472 22.0869 12.3629 21.2195V21.2205ZM11.8936 24.0687C11.3958 24.6861 10.5007 24.781 9.89739 24.2811C9.29408 23.7812 9.20733 22.9049 9.70121 22.3023C10.2 21.6927 11.0665 21.5989 11.6728 22.0889C12.2771 22.5769 12.3767 23.469 11.8926 24.0687H11.8936Z" fill="#000000"/>
<path d="M11.0419 27.232C10.8418 27.0265 10.5106 26.9978 10.2927 27.1984C9.85899 27.5975 9.44003 28.0124 9.05853 28.3789C8.80912 28.6763 8.80715 28.9786 9.01417 29.1989C9.20837 29.4054 9.53466 29.437 9.76238 29.2305C10.205 28.8284 10.6358 28.4115 11.0557 27.9857C11.2618 27.7763 11.2391 27.4345 11.0419 27.232Z" fill="#000000"/>
<path d="M12.9306 30.4535C12.5964 30.2539 12.2406 30.0257 11.8679 29.8262C11.6096 29.6879 11.2991 29.8104 11.1601 30.0682C11.0221 30.3251 11.0911 30.6323 11.3464 30.7963C11.6787 31.0087 12.0188 31.2122 12.3628 31.4049C12.624 31.5511 12.9365 31.4612 13.0903 31.2181C13.2431 30.9771 13.1859 30.659 12.9296 30.4535H12.9306Z" fill="#000000"/>
<path d="M6.38904 34.9199C5.34804 34.6907 4.30803 34.4625 3.26802 34.2313C2.90919 34.1513 2.63218 34.2916 2.54543 34.6028C2.45868 34.915 2.61838 35.2113 2.96834 35.2933C3.98864 35.5314 5.01189 35.7685 6.04007 35.9691C6.32201 36.0244 6.67295 36.0096 6.81195 35.7152C6.88884 35.5502 6.8918 35.3408 6.79223 35.1847C6.70351 35.0434 6.54874 34.9555 6.38904 34.9199Z" fill="#000000"/>
<path d="M7.55031 35.319C7.34428 35.5611 7.37484 35.9049 7.61932 36.1024C7.86084 36.2981 8.21868 36.2585 8.40598 36.0165C8.58638 35.7833 8.54498 35.4356 8.31529 35.2479C8.08461 35.0592 7.7455 35.0908 7.55031 35.319Z" fill="#000000"/>
<path d="M22.2454 33.0379C21.2725 33.4726 20.2985 33.9063 19.3245 34.339C18.9884 34.4882 18.8474 34.7658 18.9627 35.0681C19.0781 35.3714 19.3817 35.5156 19.712 35.3723C20.6682 34.9594 21.6214 34.5385 22.5658 34.0989C22.7245 34.0248 22.899 33.9241 22.9996 33.7759C23.1001 33.6277 23.0794 33.442 23.0084 33.2849C22.8704 32.9846 22.5333 32.9095 22.2464 33.0379H22.2454Z" fill="#000000"/>
<path d="M23.5822 32.3799C23.5221 32.6921 23.7163 32.9766 24.0268 33.028C24.3334 33.0794 24.6252 32.8689 24.6695 32.5656C24.7119 32.2742 24.5059 31.9917 24.2131 31.9413C23.9193 31.8909 23.6394 32.0855 23.5822 32.3809V32.3799Z" fill="#000000"/>
<path d="M18.5467 38.8133C25.1387 38.8143 31.7297 38.8133 38.3217 38.8133C38.4321 38.8133 38.5464 38.8252 38.6529 38.8015C38.9378 38.7392 39.1123 38.5555 39.1133 38.2591C39.1133 37.9627 38.9407 37.779 38.6549 37.7157C38.5484 37.692 38.434 37.7039 38.3236 37.7039C36.8726 37.7039 35.4215 37.7039 33.9704 37.7039C29 37.7039 24.0296 37.7039 19.0603 37.7039C18.2105 37.9588 17.3607 38.1761 16.51 38.3559C17.0966 38.6543 17.7827 38.8123 18.5476 38.8133H18.5467Z" fill="#000000"/>
<path d="M20.6445 30.6018C21.3701 30.2619 22.0887 29.8974 22.8271 29.5407C22.6861 29.3195 22.5442 29.0962 22.4032 28.8739C21.6826 29.2147 21.0842 29.8006 20.6436 30.6018H20.6445Z" fill="#000000"/>
<path d="M16.7192 37.1902C16.2706 37.2939 15.8211 37.3858 15.3716 37.4668C15.691 37.8373 16.0725 38.1356 16.5082 38.3569C17.3589 38.1771 18.2087 37.9598 19.0584 37.7049C18.8633 37.7049 18.6691 37.7049 18.4739 37.7049C17.8094 37.7049 17.2081 37.5211 16.7192 37.1902Z" fill="#000000"/>
<path d="M21.8412 26.6363C21.5475 26.7716 21.4154 27.0561 21.512 27.3317C21.6145 27.6232 21.9063 27.7753 22.2287 27.6627C22.4317 27.5916 22.6368 27.5333 22.8428 27.4849C22.6348 27.1589 22.4278 26.8328 22.2198 26.5068C22.1863 26.5177 22.1518 26.5266 22.1182 26.5375C22.0256 26.5691 21.93 26.5957 21.8412 26.6363Z" fill="#000000"/>
<path d="M20.5341 25.9339C20.8594 25.756 21.2024 25.6009 21.5603 25.4715C21.3582 25.1544 21.1561 24.8363 20.954 24.5192C20.6149 24.6585 20.2788 24.8215 19.9456 25.0102C20.1417 25.3184 20.3379 25.6266 20.5341 25.9339Z" fill="#000000"/>
<path d="M35.5949 9.90096C36.5265 9.82983 37.3772 9.48801 38.0604 8.84883C38.988 7.98045 40.0527 7.63369 41.3165 7.65049C44.2679 7.69 47.2194 7.65938 50.1709 7.66728C50.511 7.66728 50.8008 7.61097 50.9999 7.31163V4.6492C50.8372 4.30935 50.5494 4.25008 50.2034 4.25107C47.1317 4.25798 44.0599 4.25107 40.9882 4.257C39.961 4.25897 39.0531 3.95469 38.297 3.25031C37.3072 2.32957 36.1282 1.93934 34.7964 1.95416C34.479 1.95811 34.1606 1.95416 33.8175 1.95416C33.7535 1.44341 33.436 1.14407 32.9954 0.950439H29.0847C28.8176 1.15494 28.4588 1.30807 28.3089 1.57678C28.1325 1.89192 27.96 1.97688 27.6317 1.96009C27.1161 1.93342 26.5986 1.9512 26.083 1.95317C25.3703 1.95614 24.6546 1.93144 23.9438 1.9759C22.9462 2.03715 22.2601 2.95591 22.4297 3.94383C22.5736 4.78355 23.2479 5.34272 24.1538 5.35951C24.7019 5.36939 25.251 5.36149 25.8129 5.36149V6.55686C25.2076 6.55686 24.6211 6.54106 24.0355 6.56082C23.1424 6.58947 22.4701 7.25631 22.4001 8.15334C22.335 8.99109 22.9442 9.76858 23.8078 9.91677C24.0838 9.96419 24.3707 9.95332 24.6526 9.95727C25.04 9.9632 25.4265 9.95925 25.8326 9.95925C25.8326 10.1687 25.8326 10.3159 25.8326 10.4621C25.8326 13.1611 25.8287 15.8601 25.8356 18.5591C25.8375 19.5302 26.5444 20.2612 27.4878 20.284C27.6908 20.2889 27.8949 20.2494 28.1226 20.2276C28.1226 21.2758 28.1246 22.3102 28.1187 23.3435C28.1187 23.4324 28.0773 23.5372 28.0221 23.6083C27.7815 23.9175 27.5282 24.2169 27.2768 24.5241C25.0972 23.7209 22.9778 23.6893 20.9569 24.5182C21.159 24.8353 21.3611 25.1534 21.5631 25.4705C22.4415 25.1544 23.4145 24.9953 24.4624 25.0457C28.7308 25.2512 31.428 28.8877 31.493 31.9325H30.3712C30.314 31.643 30.2647 31.3437 30.1957 31.0483C29.3716 27.5195 25.6532 25.4142 22.2217 26.5039C22.4297 26.8299 22.6367 27.1559 22.8447 27.4819C23.377 27.3574 23.9192 27.308 24.4771 27.3406C26.8845 27.4799 28.9704 29.4736 29.2198 31.9186H28.0704C27.1664 29.436 25.9322 28.4471 23.8354 28.5291C23.7309 28.5331 23.6274 28.542 23.5259 28.5538C23.1266 28.6002 22.752 28.7079 22.406 28.8719C22.547 29.0942 22.6889 29.3165 22.8299 29.5388C22.0905 29.8954 21.3729 30.2599 20.6473 30.5998C20.4305 30.994 20.2511 31.4385 20.115 31.9325H18.9626C18.9813 31.7092 19.0149 31.4929 19.0622 31.2834C18.661 31.4405 18.2588 31.5867 17.8556 31.7221C17.8073 31.9068 17.7116 31.9799 17.4751 31.9592C17.3666 31.9493 17.2572 31.9483 17.1468 31.9483C15.9392 32.3118 14.7237 32.5736 13.5003 32.7357C13.3889 32.9085 13.3061 33.1051 13.2578 33.3235C13.2164 33.5082 13.2085 33.692 13.2312 33.8708C13.6019 33.8293 13.9716 33.7789 14.3393 33.7206C14.3393 33.7127 14.3363 33.7068 14.3363 33.6989C14.3166 33.3916 14.4763 33.1792 14.776 33.1002C14.9041 33.0666 15.0431 33.0646 15.1772 33.0646C15.8791 33.0646 16.5819 33.0646 17.2838 33.0646C18.6836 32.6596 20.0578 32.1271 21.4064 31.4642C21.7485 30.4595 22.8516 29.6543 24.0128 29.6346C24.1085 29.6326 24.2041 29.6366 24.2987 29.6445C24.3677 29.6919 24.5777 29.679 24.6644 29.6978C24.7887 29.7245 24.9119 29.7581 25.0321 29.8006C25.2687 29.8835 25.4955 29.9952 25.7045 30.1345C26.1096 30.4032 26.4507 30.7737 26.6627 31.2143C26.7415 31.3783 26.8135 31.564 26.8332 31.7448C26.8598 31.9957 26.8766 32.2081 26.7967 32.4541C26.7218 32.6853 26.5897 32.8987 26.4123 33.0656C33.8994 33.0656 41.3865 33.0656 48.8736 33.0656C49.0973 33.0656 49.328 33.0666 49.535 33.1516C49.742 33.2365 49.9224 33.4272 49.9254 33.6515C49.9284 33.8797 49.747 34.0782 49.537 34.1662C49.327 34.2541 49.0914 34.2561 48.8637 34.2561C47.456 34.2561 46.0473 34.2561 44.6396 34.2561H40.4154C39.0077 34.2561 37.6 34.2561 36.1913 34.2561C34.7836 34.2561 33.3759 34.2561 31.9672 34.2561C30.5595 34.2561 29.1518 34.2561 27.7431 34.2561C27.4542 34.2561 27.1654 34.2561 26.8776 34.2561C26.7297 34.2561 26.5818 34.2561 26.4339 34.2561C26.3176 34.2561 26.0968 34.2116 25.9913 34.2561C25.9164 34.2867 25.8543 34.4181 25.8001 34.4833C25.7252 34.5732 25.6453 34.6591 25.5595 34.7391C25.3791 34.9101 25.1771 35.0573 24.9631 35.1837C24.836 35.2588 24.7068 35.3299 24.5777 35.403H48.6853C48.6261 35.5986 48.5946 35.7557 48.5315 35.899C48.0218 37.043 47.1405 37.6752 45.8905 37.6999C44.2926 37.7315 42.6936 37.7068 41.0947 37.7098C40.6895 37.7098 40.4657 37.8857 40.4371 38.2067C40.4036 38.5782 40.6501 38.8153 41.0927 38.8163C42.6177 38.8192 44.1427 38.8192 45.6678 38.8173C47.799 38.8153 49.3112 37.6051 49.7923 35.5255C49.815 35.4287 49.8603 35.2914 49.9333 35.2588C50.4903 35.0098 50.8037 34.5623 51.0009 34.0101V33.3442C50.5267 32.2289 50.1137 31.9582 48.8903 31.9582C48.1036 31.9582 47.316 31.9562 46.5293 31.9592C46.3578 31.9592 46.2444 31.9473 46.1892 31.729C45.4519 28.8186 43.6932 26.7894 40.9192 25.6474C40.8876 25.6345 40.862 25.6078 40.8147 25.5733C41.0158 25.35 41.2258 25.1465 41.4022 24.9173C42.1495 23.9481 42.4905 22.8328 42.5329 21.6206C42.5487 21.1711 42.3427 20.9725 41.8784 20.9775C39.825 20.9992 38.2901 21.8686 37.3713 23.8009C36.3934 22.735 35.2223 22.0306 33.8254 21.7431V9.91084C34.4258 9.91084 35.0133 9.94739 35.5949 9.90294V9.90096ZM25.8129 8.83796C25.2007 8.83796 24.6053 8.8597 24.0119 8.82907C23.6934 8.81326 23.4736 8.50997 23.5101 8.21162C23.5485 7.89549 23.727 7.6821 24.0572 7.67321C24.6309 7.65839 25.2047 7.66926 25.8139 7.66926V8.83796H25.8129ZM24.1873 4.25206C23.7132 4.24613 23.4322 3.93098 23.5249 3.53384C23.588 3.26414 23.7595 3.08335 24.0345 3.08137C25.3821 3.0715 26.7287 3.07644 28.1009 3.07644V4.26095C27.6415 4.26095 27.2029 4.26095 26.7652 4.26095C25.9065 4.25897 25.0469 4.26292 24.1883 4.25206H24.1873ZM28.096 18.7221C28.0092 19.0333 27.7934 19.2002 27.4661 19.1666C27.1585 19.136 26.983 18.9483 26.9436 18.6401C26.9347 18.567 26.9377 18.4929 26.9377 18.4188C26.9377 14.1846 26.9377 9.95036 26.9377 5.71516V5.38717H28.1216C28.1216 5.53635 28.1216 5.66774 28.1216 5.79913C28.1216 9.97209 28.1216 14.145 28.1216 18.318C28.1216 18.4524 28.1325 18.5946 28.097 18.7211L28.096 18.7221ZM29.2287 22.1699C29.2287 15.6279 29.2287 9.08494 29.2287 2.54296C29.2287 2.22156 29.3861 2.06086 29.7009 2.06086C30.1747 2.06086 30.4116 2.30323 30.4116 2.78796C30.4116 6.06488 30.4116 9.34279 30.4116 12.6197C30.4116 12.7432 30.4008 12.8687 30.4185 12.9892C30.4629 13.2806 30.6354 13.4584 30.9341 13.4723C31.2505 13.4871 31.4428 13.3132 31.5049 13.0089C31.5295 12.8904 31.5167 12.7639 31.5167 12.6405C31.5167 9.2766 31.5167 5.91373 31.5167 2.54988V2.08654H32.6789V21.6107C32.3083 21.6384 31.9435 21.6661 31.5344 21.6967C31.5285 21.5752 31.5177 21.4477 31.5177 21.3203C31.5167 19.4106 31.5177 17.501 31.5157 15.5914C31.5157 15.4689 31.5236 15.3414 31.494 15.2239C31.426 14.9542 31.2348 14.7961 30.9607 14.799C30.6709 14.802 30.4777 14.97 30.4215 15.2614C30.3988 15.3809 30.4106 15.5074 30.4106 15.6299C30.4106 17.6502 30.4047 19.6715 30.4165 21.6917C30.4175 21.9417 30.3475 22.0622 30.1129 22.1482C29.828 22.2529 29.5629 22.4119 29.2267 22.5789V22.1709L29.2287 22.1699ZM31.424 27.9601C31.0189 27.472 30.6236 27.0048 30.2431 26.5266C30.2016 26.4742 30.2056 26.3409 30.2431 26.2757C31.0031 24.9074 33.3256 24.6091 34.4642 25.761C33.2882 26.2836 32.2738 27.0166 31.425 27.9611L31.424 27.9601ZM35.5939 31.9335C36.422 30.5692 38.8766 30.256 40.1246 31.9335H35.5939ZM41.629 31.9414C41.5107 31.9285 41.3736 31.7843 41.3046 31.6657C40.0744 29.5605 37.2757 29.0033 35.378 30.5277C34.9768 30.8507 34.6732 31.3052 34.3617 31.726C34.2454 31.8831 34.1547 31.968 33.9585 31.9592C33.644 31.9443 33.3286 31.9552 33.0062 31.9552C33.3532 30.1503 35.6077 28.5173 37.7607 28.4738C39.9383 28.4293 42.2263 30.0258 42.6867 31.9542C42.3141 31.9542 41.9691 31.9779 41.6309 31.9414H41.629ZM38.1777 24.8284C38.3887 23.4512 39.8881 22.1798 41.3332 22.1452C41.3421 23.2606 40.4431 24.7365 39.4198 25.106C39.0767 25.2305 38.6341 25.0842 38.2388 25.0447C38.2102 25.0418 38.1669 24.8995 38.1777 24.8284ZM41.9286 27.4068C43.5621 28.4758 44.8091 30.2619 45.0792 31.9512C44.7214 31.9512 44.3675 31.969 44.0175 31.9384C43.9337 31.9305 43.8342 31.7695 43.7938 31.6588C42.9687 29.4113 41.4012 27.966 39.062 27.5116C36.3885 26.9919 34.2454 27.9581 32.6336 30.1384C32.5695 30.2254 32.5094 30.3162 32.4374 30.42C32.2836 29.9932 32.1239 29.5941 32.0047 29.1831C31.9771 29.0893 32.0618 28.9342 32.1377 28.8433C34.5382 25.9427 38.7504 25.3263 41.9286 27.4068ZM36.9425 25.0803C36.8725 25.1109 36.8626 25.1159 36.8508 25.1198C36.1154 25.3549 35.5506 25.2216 34.894 24.692C33.3 23.4078 30.9252 23.7486 29.5865 25.3065C29.4909 25.4172 29.3992 25.5318 29.2888 25.6651C28.9684 25.4537 28.6559 25.2473 28.3089 25.0181C29.3647 23.5451 30.7626 22.7577 32.5567 22.7468C34.41 22.735 35.8542 23.5332 36.9425 25.0803ZM33.8244 8.80931V3.10706C35.2371 2.96776 36.5433 3.09422 37.6385 4.13449C38.5631 5.01275 39.7116 5.36643 40.9783 5.36544C43.7928 5.36247 46.6062 5.36544 49.4207 5.36544H49.8731V6.55489C49.7322 6.55489 49.5902 6.55489 49.4473 6.55489C46.486 6.55884 43.5246 6.55192 40.5633 6.57267C39.5351 6.57959 38.573 6.91745 37.8346 7.62184C36.6911 8.71348 35.3544 8.98714 33.8244 8.81129V8.80931Z" fill="#000000"/>
<path d="M18.2125 26.2598C17.9177 26.5295 17.6466 26.816 17.4002 27.1163C17.5619 27.5698 17.4938 28.0963 17.1735 28.4905C16.9329 28.7859 16.6007 28.9588 16.2517 29.0032C16.097 29.3589 15.9649 29.7293 15.8564 30.1146C16.2764 30.1512 16.7023 30.081 17.0907 29.9101C17.417 29.0329 17.9256 28.1941 18.5871 27.468C18.5654 27.0432 18.4392 26.6263 18.2125 26.2588V26.2598Z" fill="#000000"/>
</g>
<defs>
<clipPath id="clip0_858_1565">
<rect width="51" height="38.0476" fill="white" transform="translate(0 0.952393)"/>
</clipPath>
</defs>
</svg>
