<svg width="37" height="36" viewBox="0 0 37 36" fill="none" xmlns="http://www.w3.org/2000/svg">
<path d="M36.7258 16.4034C36.6782 16.2803 36.4653 15.7761 36.0425 15.3296C33.1347 12.2571 29.6347 10.0595 25.6323 8.7886C25.6897 8.47307 25.7211 8.14875 25.7211 7.81702C25.7211 6.3976 25.1715 5.10448 24.2753 4.13754C24.9106 3.6462 25.0776 3.51943 25.3959 3.43014C25.7984 3.31679 26.0344 3.42181 26.231 3.49537C26.7505 3.69015 26.9768 3.02902 26.7177 2.65427C26.5141 2.3591 26.2023 2.19208 25.8373 2.15738C25.3001 2.10603 24.676 2.38778 24.1402 2.72459C24.1574 1.77615 23.9742 0.644502 23.1238 0.0976459C22.8374 -0.0864903 22.4553 -0.00367526 22.2711 0.28317C22.087 0.570015 22.1698 0.951704 22.4567 1.13584C22.8587 1.39446 22.948 2.25037 22.8878 3.05678C22.1194 2.63808 21.2389 2.39981 20.3039 2.39981C17.3166 2.39981 14.8863 4.83013 14.8863 7.81748C14.8863 8.35786 14.9668 8.87928 15.1148 9.372C1.4457 20.906 1.20327 21.2007 1.10288 21.3043C0.153512 22.2856 -0.00610352 22.9005 -0.00610352 23.8734V34.9197C-0.00610352 35.5355 0.454237 36 1.06448 36C1.13619 36 1.20975 35.9936 1.28239 35.9811C1.71682 35.9061 16.0605 33.4864 26.534 31.72C31.1305 30.9446 34.8507 30.3173 36.0156 30.1206C36.4306 30.0554 36.9257 29.8153 36.9257 29.0408C36.9257 29.007 37.0062 20.1028 37.0062 17.765C37.0062 17.1358 36.7739 16.5246 36.7258 16.4034ZM20.3039 3.63417C22.6103 3.63417 24.4872 5.51069 24.4872 7.81748C24.4872 10.1243 22.6107 12.0008 20.3039 12.0008C17.9971 12.0008 16.1206 10.1243 16.1206 7.81748C16.1206 5.51069 17.9971 3.63417 20.3039 3.63417ZM20.3039 13.2347C22.5265 13.2347 24.4401 11.8888 25.2742 9.97021C28.8279 11.1009 31.9646 13.0029 34.6138 15.6331C34.7905 15.8084 35.1838 16.1573 34.4611 16.2808C29.9082 17.0608 3.84086 21.352 3.51793 21.4139C3.16354 21.482 2.71106 21.537 3.26116 21.0383C4.83834 19.6818 8.29159 16.7444 15.6302 10.5513C16.5722 12.1549 18.3136 13.2342 20.3039 13.2342V13.2347ZM34.5971 29.1079C32.8525 29.3804 29.8494 29.9087 26.3286 30.5028C17.2333 32.0369 5.22651 34.1143 1.92686 34.6199C1.4767 34.6889 1.23335 34.3766 1.24306 33.7835C1.2847 31.1676 1.39666 24.0501 1.39666 23.581C1.39666 23.0055 2.00135 22.9176 2.00135 22.9176C2.00135 22.9176 34.4019 17.5651 34.8609 17.4758C35.3198 17.3866 35.7256 17.4027 35.7256 18C35.7256 18.4835 35.7043 25.2535 35.6955 27.8874C35.6936 28.5078 35.5683 28.9566 34.5971 29.1079Z" fill="#A3A3A3"/>
<path d="M12.9385 18.9597C14.3991 18.9597 15.5428 18.0469 15.5428 16.8815C15.5428 15.716 14.3991 14.8032 12.9385 14.8032C11.4779 14.8032 10.3342 15.716 10.3342 16.8815C10.3342 18.0469 11.4784 18.9597 12.9385 18.9597ZM12.9385 16.0376C13.7458 16.0376 14.3084 16.4827 14.3084 16.8815C14.3084 17.2803 13.7458 17.7253 12.9385 17.7253C12.1312 17.7253 11.5681 17.2803 11.5681 16.8815C11.5681 16.4827 12.1307 16.0376 12.9385 16.0376Z" fill="#A3A3A3"/>
<path d="M26.8411 16.1575C28.3012 16.1575 29.4454 15.2446 29.4454 14.0792C29.4454 12.9138 28.3012 12.001 26.8411 12.001C25.381 12.001 24.2368 12.9138 24.2368 14.0792C24.2368 15.2446 25.3805 16.1575 26.8411 16.1575ZM26.8411 13.2353C27.6484 13.2353 28.2115 13.6804 28.2115 14.0792C28.2115 14.478 27.6489 14.9231 26.8411 14.9231C26.0333 14.9231 25.4712 14.478 25.4712 14.0792C25.4712 13.6804 26.0338 13.2353 26.8411 13.2353Z" fill="#A3A3A3"/>
<path d="M19.6843 17.7452C21.1445 17.7452 22.2886 16.8324 22.2886 15.667C22.2886 14.5016 21.1445 13.5887 19.6843 13.5887C18.2242 13.5887 17.0796 14.5016 17.0796 15.667C17.0796 16.8324 18.2237 17.7452 19.6843 17.7452ZM19.6843 14.8231C20.4917 14.8231 21.0542 15.2682 21.0542 15.667C21.0542 16.0658 20.4917 16.5109 19.6843 16.5109C18.877 16.5109 18.314 16.0658 18.314 15.667C18.314 15.2682 18.877 14.8231 19.6843 14.8231Z" fill="#A3A3A3"/>
<path d="M2.82637 27.4665C3.0651 27.4665 3.29226 27.3272 3.39312 27.0945C3.39867 27.0815 3.97514 25.8092 5.0249 25.4507C5.57037 25.2642 6.15609 25.3503 6.81537 25.7139C8.21906 26.4875 8.93155 26.7535 9.54225 26.7318C10.2825 26.7049 10.7174 26.246 11.2212 25.7144C11.4308 25.4932 11.6681 25.2429 11.9707 24.9677C13.3568 23.7074 13.9486 24.0928 14.8438 24.6753C15.7686 25.2776 17.0349 26.1021 18.9295 24.2704C20.4877 22.764 21.2895 23.1615 22.3055 23.6648C23.2905 24.1534 24.6396 24.8215 26.2908 22.8492C27.8888 20.9403 28.7003 21.1281 30.0508 21.9701C32.0698 23.2295 34.0911 21.9877 34.8776 21.1545C35.1113 20.9074 35.1002 20.5188 34.8536 20.2847C34.6074 20.0501 34.2174 20.0603 33.9819 20.3055C33.9167 20.3735 32.3654 21.9595 30.704 20.9231C28.5916 19.606 27.1388 19.9132 25.3446 22.0571C24.3171 23.2845 23.8281 23.0421 22.8533 22.5595C21.7572 22.0159 20.2559 21.272 18.0717 23.3835C16.8846 24.5314 16.3988 24.2154 15.5174 23.6417C14.5533 23.0134 13.2319 22.1533 11.1407 24.0548C10.8039 24.3607 10.5388 24.641 10.3255 24.8659C9.87814 25.3378 9.71528 25.4909 9.49784 25.4993C9.0722 25.515 8.20379 25.0704 7.41173 24.6336C6.44432 24.1006 5.50745 23.9822 4.62656 24.2834C3.04891 24.8224 2.29293 26.5314 2.26147 26.6041C2.12591 26.9168 2.2698 27.28 2.58255 27.4156C2.66259 27.4503 2.74587 27.4665 2.82776 27.4665H2.82637Z" fill="#A3A3A3"/>
<path d="M34.2154 24.786C34.1502 24.854 32.5989 26.44 30.9371 25.4036C28.8246 24.0864 27.3723 24.3936 25.5777 26.5376C24.5501 27.765 24.0607 27.5226 23.0868 27.04C21.9907 26.4964 20.4894 25.7525 18.3048 27.864C17.1176 29.0119 16.6318 28.6959 15.7505 28.1217C14.7858 27.4934 13.465 26.6333 11.3738 28.5349C11.037 28.8407 10.7719 29.121 10.5586 29.3459C10.1112 29.8178 9.94834 29.9714 9.73089 29.9793C9.30525 29.995 8.43685 29.5504 7.64479 29.1136C6.67738 28.5807 5.74051 28.4627 4.85961 28.7634C3.28196 29.3024 2.52599 31.0119 2.49453 31.0841C2.35943 31.3959 2.50239 31.7577 2.81376 31.8937C2.8938 31.9289 2.97754 31.9455 3.05989 31.9455C3.29723 31.9455 3.52393 31.8077 3.62618 31.5763C3.63173 31.5638 4.20542 30.2869 5.26397 29.9293C5.80805 29.7452 6.39192 29.8321 7.04889 30.1944C8.45258 30.968 9.16645 31.2344 9.77577 31.2122C10.516 31.1854 10.9509 30.7264 11.4547 30.1949C11.6643 29.9737 11.9017 29.7234 12.2042 29.4481C13.5903 28.1879 14.1821 28.5733 15.0773 29.1562C16.0022 29.7581 17.2684 30.583 19.163 28.7514C20.7212 27.245 21.5235 27.6424 22.539 28.1458C23.524 28.6343 24.8731 29.3024 26.5248 27.3301C28.1228 25.4212 28.9338 25.609 30.2847 26.4511C32.3038 27.7104 34.3251 26.4682 35.1116 25.6354C35.3452 25.3883 35.3337 24.9997 35.0875 24.7656C34.8414 24.5311 34.4514 24.5408 34.2159 24.786H34.2154Z" fill="#A3A3A3"/>
</svg>
