<svg width="20" height="14" viewBox="0 0 20 14" fill="none" xmlns="http://www.w3.org/2000/svg">
<path d="M19 2.25H1C0.59 2.25 0.25 1.91 0.25 1.5C0.25 1.09 0.59 0.75 1 0.75H19C19.41 0.75 19.75 1.09 19.75 1.5C19.75 1.91 19.41 2.25 19 2.25Z" fill="white"/>
<path d="M19 7.75H1C0.59 7.75 0.25 7.41 0.25 7C0.25 6.59 0.59 6.25 1 6.25H19C19.41 6.25 19.75 6.59 19.75 7C19.75 7.41 19.41 7.75 19 7.75Z" fill="white"/>
<path d="M19 13.25H1C0.59 13.25 0.25 12.91 0.25 12.5C0.25 12.09 0.59 11.75 1 11.75H19C19.41 11.75 19.75 12.09 19.75 12.5C19.75 12.91 19.41 13.25 19 13.25Z" fill="white"/>
</svg>
