<svg width="32" height="43" viewBox="0 0 32 43" fill="none" xmlns="http://www.w3.org/2000/svg">
<path d="M19.365 0.171875C19.7429 -0.00588622 20.1939 0.156434 20.3718 0.53418V0.535156C20.5494 0.913028 20.3872 1.36301 20.0095 1.54102C18.6184 2.19568 17.8152 3.34132 17.3533 4.48145C16.8917 5.62069 16.7674 6.76115 16.7371 7.41992L16.7332 7.50586L16.8181 7.52246C18.88 7.91742 20.4441 9.73426 20.4441 11.9092C20.444 12.9642 20.0751 13.9349 19.4607 14.7002L19.3298 14.8623H20.5398C21.9135 14.8623 23.1522 15.5677 23.8533 16.749C24.3254 17.5448 24.4894 18.4507 24.3464 19.3252L24.3269 19.4414H24.9421C26.3157 19.4415 27.5535 20.1458 28.2546 21.3271C28.9556 22.5086 28.9812 23.9328 28.323 25.1387L27.8943 25.9238L27.8132 26.0723H30.158C30.3892 26.0723 30.6082 26.178 30.7517 26.3594C30.8951 26.5407 30.9475 26.778 30.8943 27.0029L27.2742 42.3174C27.1936 42.6586 26.8894 42.9002 26.5388 42.9004H5.33667C4.98587 42.9004 4.68097 42.6587 4.60034 42.3174L0.980225 27.0029C0.927038 26.7779 0.98031 26.5408 1.12378 26.3594C1.2674 26.1781 1.48541 26.0723 1.71655 26.0723H4.06128L3.98022 25.9238L3.55151 25.1387C2.89337 23.933 2.91889 22.5085 3.61987 21.3271C4.32102 20.1457 5.55956 19.4414 6.93335 19.4414H7.54761L7.52905 19.3252C7.38604 18.4505 7.54988 17.544 8.02222 16.748C8.72332 15.5669 9.96109 14.8623 11.3347 14.8623H12.6238L12.4929 14.6992C11.8786 13.934 11.5095 12.9634 11.5095 11.9082C11.5097 9.73233 13.0752 7.91519 15.1384 7.52148L15.2166 7.50684L15.2195 7.42676C15.2735 5.82738 15.7818 1.85805 19.365 0.171875ZM2.7019 27.708L5.91675 41.3096L5.9353 41.3867H11.3308L11.321 41.2783L10.1511 27.6768L10.1433 27.585H2.67261L2.7019 27.708ZM11.6716 27.6943L12.8416 41.2959L12.8494 41.3867H19.0261L19.0339 41.2959L20.2039 27.6943L20.2126 27.585H11.6619L11.6716 27.6943ZM21.7234 27.6768L20.5535 41.2783L20.5447 41.3867H25.9402L25.9578 41.3096L29.1726 27.708L29.2019 27.585H21.7312L21.7234 27.6768ZM6.93335 20.9541C6.0997 20.9541 5.34705 21.3827 4.92163 22.0996C4.70256 22.4688 4.59332 22.878 4.59253 23.2881L4.59155 23.3877H10.7664C11.1841 23.3877 11.5232 23.7267 11.5232 24.1445C11.5232 24.5624 11.1841 24.9014 10.7664 24.9014H5.14624L5.22729 25.0488L5.75659 26.0195L5.78491 26.0723H26.0896L26.1179 26.0195L26.9949 24.4141C27.3943 23.6825 27.3783 22.8165 26.9529 22.0996C26.5275 21.3829 25.7756 20.9542 24.9421 20.9541H6.93335ZM11.3347 16.375C10.5011 16.375 9.74842 16.8037 9.323 17.5205C8.9854 18.0896 8.90556 18.7534 9.08765 19.3691L9.10913 19.4414H22.7654L22.7869 19.3691C22.8293 19.2254 22.8568 19.0793 22.8708 18.9326L22.8816 18.8223H17.7927C17.375 18.8223 17.036 18.4841 17.0359 18.0664C17.0359 17.6486 17.3749 17.3096 17.7927 17.3096H22.4236L22.2732 17.1426C21.835 16.6558 21.2137 16.375 20.5398 16.375H11.3347ZM15.9773 8.95508C14.3487 8.95508 13.0234 10.2797 13.0232 11.9082C13.0232 13.5369 14.3485 14.8623 15.9773 14.8623C17.6058 14.8621 18.9304 13.5367 18.9304 11.9082C18.9302 10.2799 17.6057 8.95529 15.9773 8.95508Z" fill="#A3A3A3" stroke="white" stroke-width="0.2"/>
</svg>
