<svg width="44" height="36" viewBox="0 0 44 36" fill="none" xmlns="http://www.w3.org/2000/svg">
<path d="M17.0353 15.0383C17.4567 15.0383 17.7983 14.6967 17.7983 14.2753C17.7983 13.8538 17.4567 13.5122 17.0353 13.5122C16.6138 13.5122 16.2722 13.8538 16.2722 14.2753C16.2722 14.6967 16.6138 15.0383 17.0353 15.0383Z" fill="#A3A3A3"/>
<path d="M7.33996 21.1069C7.76138 21.1069 8.10301 20.7653 8.10301 20.3439C8.10301 19.9224 7.76138 19.5808 7.33996 19.5808C6.91854 19.5808 6.5769 19.9224 6.5769 20.3439C6.5769 20.7653 6.91854 21.1069 7.33996 21.1069Z" fill="#A3A3A3"/>
<path d="M16.2902 28.5309C16.7116 28.5309 17.0532 28.1892 17.0532 27.7678C17.0532 27.3464 16.7116 27.0048 16.2902 27.0048C15.8687 27.0048 15.5271 27.3464 15.5271 27.7678C15.5271 28.1892 15.8687 28.5309 16.2902 28.5309Z" fill="#A3A3A3"/>
<path d="M28.1132 22.5701C28.5346 22.5701 28.8762 22.2284 28.8762 21.807C28.8762 21.3856 28.5346 21.0439 28.1132 21.0439C27.6917 21.0439 27.3501 21.3856 27.3501 21.807C27.3501 22.2284 27.6917 22.5701 28.1132 22.5701Z" fill="#A3A3A3"/>
<path d="M31.9105 12.1118C32.3319 12.1118 32.6736 11.7702 32.6736 11.3487C32.6736 10.9273 32.3319 10.5857 31.9105 10.5857C31.4891 10.5857 31.1475 10.9273 31.1475 11.3487C31.1475 11.7702 31.4891 12.1118 31.9105 12.1118Z" fill="#A3A3A3"/>
<path d="M37.0006 11.3487C37.422 11.3487 37.7637 11.0071 37.7637 10.5857C37.7637 10.1643 37.422 9.82263 37.0006 9.82263C36.5792 9.82263 36.2375 10.1643 36.2375 10.5857C36.2375 11.0071 36.5792 11.3487 37.0006 11.3487Z" fill="#A3A3A3"/>
<path d="M20.734 7.56932C21.1554 7.56932 21.4971 7.22769 21.4971 6.80627C21.4971 6.38484 21.1554 6.04321 20.734 6.04321C20.3126 6.04321 19.9709 6.38484 19.9709 6.80627C19.9709 7.22769 20.3126 7.56932 20.734 7.56932Z" fill="#A3A3A3"/>
<path d="M22.1707 29.1594C23.3377 29.1594 24.2803 28.2079 24.2803 27.0498C24.2803 25.8828 23.3377 24.9402 22.1707 24.9402C21.0036 24.9402 20.061 25.8828 20.061 27.0498C20.061 28.2168 21.0036 29.1594 22.1707 29.1594ZM22.1707 26.2868C22.5926 26.2868 22.9337 26.6279 22.9337 27.0498C22.9337 27.4717 22.5926 27.8129 22.1707 27.8129C21.7487 27.8129 21.4076 27.4717 21.4076 27.0498C21.4076 26.6279 21.7487 26.2868 22.1707 26.2868Z" fill="#A3A3A3"/>
<path d="M12.6102 20.4337C11.0033 20.4337 9.69263 21.7444 9.69263 23.3513C9.69263 24.9582 11.0033 26.2688 12.6102 26.2688C14.2171 26.2688 15.5278 24.9672 15.5278 23.3513C15.5278 21.7444 14.2171 20.4337 12.6102 20.4337ZM12.6102 24.9223C11.7484 24.9223 11.0392 24.2131 11.0392 23.3513C11.0392 22.4895 11.7484 21.7803 12.6102 21.7803C13.472 21.7803 14.1812 22.4895 14.1812 23.3513C14.1812 24.2131 13.472 24.9223 12.6102 24.9223Z" fill="#A3A3A3"/>
<path d="M15.1505 12.058C16.5599 12.058 17.709 10.9089 17.709 9.49952C17.709 8.09011 16.5599 6.94104 15.1505 6.94104C13.7411 6.94104 12.592 8.09011 12.592 9.49952C12.592 10.9089 13.7411 12.058 15.1505 12.058ZM15.1505 8.28761C15.8148 8.28761 16.3624 8.83521 16.3624 9.49952C16.3624 10.1638 15.8148 10.7114 15.1505 10.7114C14.4862 10.7114 13.9386 10.1638 13.9386 9.49952C13.9386 8.83521 14.4862 8.28761 15.1505 8.28761Z" fill="#A3A3A3"/>
<path d="M11.6765 15.0115C11.6765 13.8445 10.7339 12.9019 9.5669 12.9019C8.39987 12.9019 7.45728 13.8445 7.45728 15.0115C7.45728 16.1785 8.39987 17.1211 9.5669 17.1211C10.7339 17.1211 11.6765 16.1785 11.6765 15.0115ZM9.5669 15.7745C9.14497 15.7745 8.80384 15.4334 8.80384 15.0115C8.80384 14.5896 9.14497 14.2484 9.5669 14.2484C9.98882 14.2484 10.33 14.5896 10.33 15.0115C10.33 15.4334 9.98882 15.7745 9.5669 15.7745Z" fill="#A3A3A3"/>
<path d="M36.0044 16.0977C35.8697 15.981 35.6902 15.9271 35.5106 15.9451L19.9982 17.2737L29.7383 5.00197C29.9717 4.7147 29.9179 4.2838 29.6306 4.05937C26.4348 1.51885 22.431 0.136375 18.3464 0.190237C14.2708 0.235123 10.2939 1.68941 7.14294 4.30175C4.00095 6.96796 1.82848 10.6396 1.04748 14.6524C0.257489 18.6831 0.903841 22.8934 2.85188 26.4932C4.764 30.1199 7.88804 32.9926 11.6494 34.5995C13.8399 35.5331 16.1739 36 18.499 36C20.1867 36 21.8744 35.7486 23.4992 35.2548C27.4312 34.0699 30.8695 31.5563 33.1766 28.1899C35.4837 24.7965 36.5789 20.676 36.2378 16.5555C36.2198 16.376 36.139 16.2144 36.0044 16.0977ZM17.9693 17.6687C17.8077 17.8662 17.7898 18.1534 17.9155 18.3958C18.0412 18.6292 18.3015 18.7729 18.5618 18.7459L31.9198 17.6058C32.216 23.818 28.3379 29.3479 22.3322 31.1523C16.0931 32.8849 9.67448 30.1558 6.72101 24.5182L6.71204 24.5092C3.65982 18.9973 4.91661 11.9682 9.68346 7.80283C14.5311 3.66438 21.3447 3.38609 26.354 7.10262L17.9693 17.6687ZM23.1042 33.9621C15.7251 36.2244 7.70849 32.8131 4.04583 25.8468C0.34726 19.0242 2.017 10.3882 8.01372 5.31617C11.048 2.80258 14.8004 1.5368 18.5529 1.5368C21.9731 1.5368 25.3934 2.58713 28.2661 4.68777L27.2068 6.02536C24.5855 4.06835 21.3447 3.04496 18.0591 3.15269C14.6927 3.26041 11.416 4.53516 8.81268 6.76149C6.26318 8.98781 4.5306 12.049 3.93811 15.3705C3.33664 18.71 3.91118 22.1752 5.54501 25.1287C7.12498 28.136 9.70141 30.5149 12.8165 31.8256C14.6478 32.5976 16.6228 32.9926 18.6157 32.9926C19.9892 32.9926 21.3627 32.8041 22.7093 32.436C22.7182 32.436 22.7182 32.436 22.7182 32.436C25.95 31.4665 28.7868 29.4018 30.6899 26.6189C32.5212 23.9527 33.4279 20.7209 33.2663 17.4802L34.9451 17.3365C35.2593 24.9581 30.4745 31.7358 23.1042 33.9621Z" fill="#A3A3A3"/>
<path d="M43.7157 12.7223C43.2579 7.91957 40.852 3.41306 37.1176 0.342886C36.9739 0.226183 36.7944 0.17232 36.6148 0.190274C36.4353 0.208228 36.2737 0.297998 36.157 0.441632L25.4473 13.9432C25.2768 14.1587 25.2588 14.4459 25.3845 14.6793C25.5012 14.8948 25.7346 15.0294 25.977 15.0294C25.9949 15.0294 26.0219 15.0294 26.0398 15.0294L43.1053 13.4584C43.2848 13.4405 43.4464 13.3597 43.5631 13.2161C43.6709 13.0814 43.7337 12.9019 43.7157 12.7223ZM33.3921 6.79743C33.814 6.79743 34.1551 7.13856 34.1551 7.56048C34.1551 7.98241 33.814 8.32354 33.3921 8.32354C32.9701 8.32354 32.629 7.98241 32.629 7.56048C32.629 7.13856 32.9701 6.79743 33.3921 6.79743ZM27.4941 13.5482L31.4979 8.48513C31.839 9.18535 32.5572 9.6701 33.3921 9.6701C34.5591 9.6701 35.5017 8.72751 35.5017 7.56048C35.5017 6.55505 34.8015 5.72018 33.8678 5.50473L34.9002 4.21202C37.2971 6.35755 38.8053 9.19432 39.299 12.462L27.4941 13.5482ZM40.6366 12.3363C40.1069 8.6916 38.4192 5.54063 35.7351 3.15272L36.7764 1.83308C39.7748 4.50827 41.7498 8.21581 42.2884 12.1837L40.6366 12.3363Z" fill="#A3A3A3"/>
</svg>
