<svg width="59" height="47" viewBox="0 0 59 47" fill="none" xmlns="http://www.w3.org/2000/svg">
<g clip-path="url(#clip0_853_1508)">
<path d="M6.93262 12.9258C5.81787 12.9258 4.82581 13.5628 4.12109 14.5527C3.41614 15.5431 2.98539 16.9002 2.98535 18.3877C2.98535 19.8754 3.416 21.2332 4.12109 22.2236C4.8258 23.2134 5.81792 23.8506 6.93262 23.8506C8.0472 23.8504 9.03855 23.2133 9.74316 22.2236C10.4483 21.2332 10.8789 19.8754 10.8789 18.3877C10.8789 16.9002 10.4482 15.5431 9.74316 14.5527C9.03852 13.563 8.04718 12.926 6.93262 12.9258ZM5.92676 25.6543L5.77539 25.6162C3.12385 24.9436 1.0752 21.9831 1.0752 18.3877C1.07521 16.4603 1.65764 14.6433 2.70703 13.2695C3.82421 11.807 5.32594 11.0146 6.93262 11.0146C8.53912 11.0148 10.0401 11.807 11.1572 13.2695C12.2065 14.6433 12.789 16.4604 12.7891 18.3877C12.7891 20.315 12.2065 22.1319 11.1572 23.5059C10.29 24.6414 9.19065 25.37 7.99316 25.6406L7.83691 25.6758V46.0303C7.83691 46.5579 7.4094 46.9852 6.88184 46.9854C6.35418 46.9854 5.92676 46.5579 5.92676 46.0303V25.6543Z" fill="#000000" stroke="white" stroke-width="0.4"/>
<path d="M52.4189 25.6875L52.2559 25.6562C50.9049 25.4022 49.8929 24.6796 49.2129 23.4844C48.528 22.2804 48.1738 20.5857 48.1738 18.3877V12.1045C48.1739 11.5769 48.6013 11.1495 49.1289 11.1494C49.6565 11.1494 50.0839 11.5769 50.084 12.1045V18.3877C50.084 20.2161 50.3285 21.4377 50.709 22.2539C51.0934 23.0784 51.6164 23.4867 52.1504 23.6807L52.4189 23.7783V12.1045C52.419 11.5769 52.8464 11.1494 53.374 11.1494C53.9016 11.1495 54.3291 11.5769 54.3291 12.1045V23.7979L54.5879 23.7178C55.1379 23.5476 55.69 23.1643 56.0986 22.3389C56.5025 21.523 56.7646 20.2802 56.7646 18.3877V12.1045C56.7647 11.5769 57.1921 11.1494 57.7197 11.1494C58.2474 11.1494 58.6748 11.5769 58.6748 12.1045V18.3877C58.6748 20.6121 58.3124 22.3211 57.6113 23.5273C56.9156 24.7244 55.8803 25.4392 54.4961 25.6738L54.3291 25.7021V46.0303C54.329 46.5579 53.9016 46.9853 53.374 46.9854C52.8464 46.9854 52.419 46.5579 52.4189 46.0303V25.6875Z" fill="#000000" stroke="white" stroke-width="0.4"/>
<path d="M30.291 11.6068C39.8258 11.6068 47.5829 19.3641 47.583 28.8988C47.583 38.4337 39.8259 46.1908 30.291 46.1908C20.7562 46.1907 12.999 38.4336 12.999 28.8988C12.9991 19.364 20.7564 11.6069 30.291 11.6068ZM30.291 13.517C21.8095 13.517 14.9092 20.4173 14.9092 28.8988C14.9092 37.3805 21.8095 44.2806 30.291 44.2806C38.7726 44.2806 45.6727 37.3805 45.6729 28.8988C45.6728 20.4172 38.7726 13.517 30.291 13.517Z" fill="#000000" stroke="white" stroke-width="0.4"/>
<path d="M39.3442 33.8982C39.5999 33.4367 40.1813 33.2689 40.6431 33.5242C41.1048 33.7797 41.2716 34.3614 41.0161 34.823C40.8947 35.0423 40.7649 35.2604 40.6304 35.4714C40.4484 35.7572 40.14 35.9138 39.8237 35.9138C39.6921 35.9138 39.5594 35.8872 39.4341 35.8308L39.312 35.7644C38.867 35.4811 38.7356 34.8901 39.019 34.4451C39.1323 34.2668 39.2409 34.0823 39.3433 33.8972L39.3442 33.8982Z" fill="#000000" stroke="white" stroke-width="0.4"/>
<path d="M30.2915 16.6484C37.046 16.6487 42.5413 22.1445 42.5415 28.8994C42.5414 29.427 42.114 29.8545 41.5864 29.8545C41.0589 29.8545 40.6315 29.427 40.6313 28.8994C40.6313 23.1978 35.993 18.5597 30.2915 18.5596C24.5898 18.5596 19.9517 23.1977 19.9517 28.8994C19.9518 34.601 24.5899 39.2393 30.2915 39.2393C32.6834 39.2392 35.0157 38.4033 36.8589 36.8857C37.2661 36.5507 37.8682 36.6094 38.2036 37.0166C38.5387 37.4238 38.4801 38.0259 38.0728 38.3613C35.8888 40.1592 33.1253 41.1493 30.2915 41.1494C23.5367 41.1494 18.0408 35.6542 18.0405 28.8994C18.0405 22.1445 23.5367 16.6484 30.2915 16.6484Z" fill="#000000" stroke="white" stroke-width="0.4"/>
</g>
<defs>
<clipPath id="clip0_853_1508">
<rect width="58" height="47" fill="white" transform="translate(0.9375)"/>
</clipPath>
</defs>
</svg>
