<svg width="33" height="35" viewBox="0 0 33 35" fill="none" xmlns="http://www.w3.org/2000/svg">
<path d="M3.393 21.9827V10.2672C2.64218 10.0948 1.99691 9.75072 1.52355 9.13285C1.17492 8.67863 0.942241 8.17333 0.927848 7.59777C0.921452 7.35509 0.960632 7.08926 1.05818 6.86974C1.87057 5.04887 2.70775 3.23837 3.52493 1.4191C3.65207 1.13571 3.83357 1.0016 4.13582 1.01198C4.25576 1.01597 4.3757 1.01118 4.49564 1.01118C12.478 1.01038 20.4603 1.01517 28.4427 1C28.9744 0.999205 29.2511 1.16604 29.4646 1.65938C30.1778 3.30623 30.9134 4.94509 31.6978 6.55921C32.1744 7.54029 31.9113 8.36092 31.3284 9.15201C30.8751 9.76749 30.229 10.0988 29.4782 10.2632V21.9492C29.5893 21.9612 29.6909 21.9803 29.7924 21.9811C30.4057 21.9843 31.0182 21.9819 31.6315 21.9843C32.2679 21.9859 32.4207 22.1647 32.3183 22.7826C31.7362 26.2966 31.1533 29.8098 30.572 33.3239C30.4745 33.9106 30.3673 34 29.7548 34C20.9065 34 12.0582 34 3.20989 34C2.45987 34 2.4087 33.9513 2.28796 33.2177C1.71545 29.7564 1.14054 26.295 0.563233 22.8337C0.449691 22.1536 0.584822 21.9851 1.26928 21.9835C1.96092 21.9819 2.65257 21.9835 3.3938 21.9835L3.393 21.9827ZM11.4161 8.99555C9.94887 10.8507 7.58287 10.6009 6.36669 8.95803C5.88373 9.6685 5.20248 10.0788 4.38449 10.2608V21.9628H10.9907C11.0115 21.9061 11.0331 21.8702 11.0371 21.8319C11.0523 21.7001 11.0611 21.5668 11.0723 21.4343C11.2098 19.8018 11.9527 18.5078 13.2496 17.5164C13.4551 17.3591 13.5966 17.328 13.8269 17.5124C15.4149 18.7864 17.4683 18.784 19.0459 17.514C19.2466 17.3527 19.3793 17.3368 19.5904 17.4932C20.7074 18.3218 21.4254 19.4043 21.7061 20.7646C21.7861 21.1517 21.8117 21.5509 21.8636 21.954H28.5019V10.2616C27.6679 10.0844 26.9946 9.66291 26.4869 8.93728C25.8392 9.81538 25.0084 10.2951 23.9522 10.2896C22.9039 10.284 22.0835 9.78664 21.455 8.95484C20.3788 10.4772 18.008 10.9537 16.4376 8.99874C14.9703 10.8404 12.6307 10.6065 11.4153 8.99475L11.4161 8.99555ZM30.7847 26.2096H2.10805C2.11924 26.3501 2.12004 26.4675 2.13923 26.5824C2.47746 28.6276 2.82289 30.672 3.15152 32.7188C3.1947 32.987 3.29625 33.0708 3.56171 33.0684C4.78749 33.0572 6.01407 33.0636 7.23985 33.0636C14.5697 33.0636 21.8988 33.0604 29.2287 33.0692C29.5605 33.0692 29.6813 32.9878 29.7316 32.6421C29.9307 31.2882 30.1722 29.94 30.3961 28.5893C30.5256 27.807 30.6512 27.0231 30.7839 26.2096H30.7847ZM31.3236 22.9542H1.54354C1.65068 23.5889 1.78182 24.1868 1.84178 24.7919C1.88017 25.1798 2.04168 25.2493 2.3975 25.2485C11.7472 25.2389 21.0976 25.2405 30.4473 25.2405C30.5536 25.2405 30.668 25.2628 30.7647 25.2317C30.8479 25.2046 30.963 25.1255 30.9766 25.0537C31.1013 24.3648 31.2077 23.6719 31.3236 22.9534V22.9542ZM20.8401 21.966C20.9889 20.6528 20.2341 19.2909 19.4688 18.6316C19.4001 18.5725 19.197 18.5996 19.0954 18.6571C17.3219 19.6565 15.5508 19.6645 13.7893 18.6467C13.5582 18.5134 13.4415 18.5661 13.2832 18.7274C12.7299 19.2901 12.3381 19.9487 12.1422 20.7071C12.039 21.107 12.0198 21.5285 11.9591 21.9668H20.8409L20.8401 21.966ZM11.9511 6.80188H15.9402V1.95075C14.8584 1.95075 13.7981 1.94516 12.7379 1.96273C12.6635 1.96432 12.5452 2.12238 12.526 2.22296C12.462 2.56143 12.4332 2.90709 12.3908 3.24955C12.2461 4.42142 12.1006 5.59249 11.9511 6.80268V6.80188ZM16.9341 1.94756V6.80348H20.9033C20.8977 6.68134 20.8993 6.58954 20.8881 6.49934C20.7402 5.3131 20.5843 4.12845 20.4435 2.94141C20.3252 1.94756 20.3332 1.94676 19.3441 1.94676H16.9341V1.94756ZM11.5952 1.98268C11.4377 1.96752 11.3346 1.94995 11.2314 1.94915C10.3399 1.94676 9.44833 1.96193 8.55758 1.94117C8.26253 1.93399 8.17057 2.05772 8.1114 2.31237C7.87792 3.30703 7.62765 4.29769 7.38297 5.28915C7.26063 5.78568 7.1359 6.28141 7.00636 6.80268H11.0019C11.201 5.18298 11.3969 3.5944 11.5952 1.98268ZM21.8732 6.80987H25.8128C25.8256 6.75718 25.8424 6.72924 25.8368 6.70769C25.4674 5.19974 25.102 3.691 24.711 2.18864C24.6838 2.08406 24.4703 1.96432 24.34 1.96033C23.582 1.93798 22.8231 1.94915 22.0651 1.94836C21.8172 1.94836 21.5702 1.94836 21.3087 1.94836C21.3087 2.09923 21.2991 2.19183 21.3103 2.28204C21.495 3.7828 21.6829 5.28276 21.8732 6.81067V6.80987ZM7.22865 1.94756C6.32911 1.94756 5.50712 1.95714 4.68594 1.94197C4.42287 1.93718 4.28694 2.01781 4.1766 2.26527C3.53852 3.69499 2.88046 5.11592 2.23199 6.54085C2.196 6.61908 2.18641 6.70849 2.15363 6.83302C3.35702 6.83302 4.52442 6.82264 5.69103 6.841C5.96689 6.84499 6.05565 6.73722 6.11162 6.49774C6.29313 5.72341 6.49302 4.95307 6.68333 4.18034C6.86004 3.46269 7.03435 2.74344 7.22865 1.94756ZM30.7191 6.83382C30.6983 6.72525 30.6983 6.68374 30.6824 6.64941C30.0019 5.15184 29.3246 3.65188 28.6282 2.1615C28.5786 2.05612 28.3907 1.96193 28.2628 1.95634C27.7582 1.93319 27.2529 1.94676 26.7475 1.94756C26.3965 1.94756 26.0455 1.94756 25.6345 1.94756C26.0391 3.56647 26.4213 5.10794 26.8155 6.64622C26.8347 6.72126 26.9498 6.82503 27.021 6.82583C28.2412 6.83701 29.4614 6.83382 30.7191 6.83382ZM6.96558 7.79734C7.1327 8.71216 8.03224 9.39629 8.95498 9.35238C9.9001 9.30688 10.7621 8.59641 10.8156 7.79734H6.96558ZM25.8888 7.80612H22.0427C22.1715 8.68023 23.0798 9.38112 24.0153 9.35398C24.9437 9.32763 25.8 8.62994 25.8888 7.80612ZM1.92174 7.80213C2.2 8.82711 3.15712 9.45536 4.11263 9.3412C4.93541 9.24302 5.84775 8.44953 5.77019 7.80213H1.92174ZM30.947 7.80612H27.0722C27.1793 8.62196 27.9621 9.27894 28.8785 9.35158C29.7932 9.42343 30.6887 8.77443 30.9462 7.80612H30.947ZM11.9878 7.80931C12.1749 8.73052 13.0849 9.41145 14.0156 9.35318C14.9391 9.2957 15.7771 8.59082 15.8387 7.80931H11.9878ZM20.9049 7.82128H16.9957C17.2404 8.72493 18.0208 9.33721 18.9067 9.35637C19.8167 9.37633 20.6219 8.77203 20.9049 7.82128Z" fill="#000000" stroke="#000000" stroke-width="0.8"/>
<path d="M19.5664 14.3225C19.5744 16.0659 18.172 17.4796 16.4344 17.4804C14.6993 17.4804 13.3032 16.0715 13.3032 14.3209C13.3032 12.6086 14.7121 11.2092 16.436 11.2084C18.1584 11.2084 19.5584 12.5998 19.5664 14.3225ZM18.6293 14.2897C18.5829 13.0596 17.5683 12.1064 16.3521 12.1511C15.1567 12.195 14.1884 13.2336 14.2403 14.4159C14.2939 15.6252 15.3118 16.5824 16.4984 16.5401C17.6986 16.497 18.6741 15.4672 18.6293 14.2897Z" fill="#000000" stroke="#000000" stroke-width="0.8"/>
</svg>
