<svg width="26" height="41" viewBox="0 0 26 41" fill="none" xmlns="http://www.w3.org/2000/svg">
<path fill-rule="evenodd" clip-rule="evenodd" d="M15.9684 24.8451C15.9684 26.1005 14.9507 27.1183 13.6952 27.1183C12.4397 27.1183 11.4219 26.1005 11.4219 24.8451C11.4219 23.5896 12.4397 22.5718 13.6952 22.5718C14.9507 22.5718 15.9684 23.5896 15.9684 24.8451ZM14.4529 24.8451C14.4529 25.2636 14.1137 25.6028 13.6952 25.6028C13.2767 25.6028 12.9374 25.2636 12.9374 24.8451C12.9374 24.4266 13.2767 24.0873 13.6952 24.0873C14.1137 24.0873 14.4529 24.4266 14.4529 24.8451Z" fill="#000000"/>
<path fill-rule="evenodd" clip-rule="evenodd" d="M10.6642 29.3916C10.6642 30.647 9.64642 31.6648 8.39095 31.6648C7.13547 31.6648 6.1177 30.647 6.1177 29.3916C6.1177 28.1361 7.13547 27.1183 8.39095 27.1183C9.64642 27.1183 10.6642 28.1361 10.6642 29.3916ZM9.14869 29.3916C9.14869 29.81 8.80944 30.1493 8.39095 30.1493C7.97245 30.1493 7.6332 29.81 7.6332 29.3916C7.6332 28.9731 7.97245 28.6338 8.39095 28.6338C8.80944 28.6338 9.14869 28.9731 9.14869 29.3916Z" fill="#000000"/>
<path fill-rule="evenodd" clip-rule="evenodd" d="M13.6952 36.2113C14.9507 36.2113 15.9684 35.1935 15.9684 33.938C15.9684 32.6826 14.9507 31.6648 13.6952 31.6648C12.4397 31.6648 11.4219 32.6826 11.4219 33.938C11.4219 35.1935 12.4397 36.2113 13.6952 36.2113ZM14.4529 33.938C14.4529 34.3565 14.1137 34.6958 13.6952 34.6958C13.2767 34.6958 12.9374 34.3565 12.9374 33.938C12.9374 33.5195 13.2767 33.1803 13.6952 33.1803C14.1137 33.1803 14.4529 33.5195 14.4529 33.938Z" fill="#000000"/>
<path fill-rule="evenodd" clip-rule="evenodd" d="M21.2726 29.3916C21.2726 30.647 20.2549 31.6648 18.9994 31.6648C17.7439 31.6648 16.7262 30.647 16.7262 29.3916C16.7262 28.1361 17.7439 27.1183 18.9994 27.1183C20.2549 27.1183 21.2726 28.1361 21.2726 29.3916ZM19.7571 29.3916C19.7571 29.81 19.4179 30.1493 18.9994 30.1493C18.5809 30.1493 18.2417 29.81 18.2417 29.3916C18.2417 28.9731 18.5809 28.6338 18.9994 28.6338C19.4179 28.6338 19.7571 28.9731 19.7571 29.3916Z" fill="#000000"/>
<path fill-rule="evenodd" clip-rule="evenodd" d="M3.08672 0.597168C2.66823 0.597168 2.32897 0.936423 2.32897 1.35491C2.32897 1.77341 2.66823 2.11266 3.08672 2.11266H9.14869C10.4042 2.11266 11.4219 3.13043 11.4219 4.3859V9.69013H3.08672C1.83124 9.69013 0.813477 10.7079 0.813477 11.9634V13.4789C0.813477 14.4765 1.45608 15.324 2.34993 15.63L3.09615 37.8032C3.13737 39.0282 4.14239 40 5.3681 40H22.0222C23.248 40 24.253 39.0282 24.2942 37.8032L25.0614 15.0071V11.9634C25.0614 10.7079 24.0436 9.69013 22.7881 9.69013H12.9374V4.3859C12.9374 2.29344 11.2412 0.597168 9.14869 0.597168H3.08672ZM3.08672 11.2056H22.7881C23.2066 11.2056 23.5459 11.5449 23.5459 11.9634L23.5459 14.9816L23.4518 17.7761C23.2251 17.7304 22.9699 17.687 22.6927 17.6523C21.6135 17.5174 20.1447 17.5089 18.718 18.0795C16.3728 19.0176 14.0485 19.0176 11.7034 18.0795C9.36095 17.1426 6.43531 17.0165 3.936 17.7014L3.87039 15.7521H18.9994C19.4179 15.7521 19.7572 15.4129 19.7572 14.9944C19.7572 14.5759 19.4179 14.2366 18.9994 14.2366H3.08672C2.66823 14.2366 2.32897 13.8974 2.32897 13.4789V11.9634C2.32897 11.5449 2.66823 11.2056 3.08672 11.2056ZM22.5047 19.1561C22.8492 19.1992 23.1538 19.2582 23.4 19.3152L22.7796 37.7523C22.7658 38.1606 22.4308 38.4845 22.0222 38.4845H5.3681C4.95953 38.4845 4.62453 38.1606 4.61078 37.7523L3.98863 19.2654C6.23799 18.5555 8.99704 18.6293 11.1405 19.4866C13.847 20.5692 16.5743 20.5692 19.2808 19.4866C20.38 19.047 21.5632 19.0384 22.5047 19.1561Z" fill="#000000"/>
<path fill-rule="evenodd" clip-rule="evenodd" d="M15.9684 24.8451C15.9684 26.1005 14.9507 27.1183 13.6952 27.1183C12.4397 27.1183 11.4219 26.1005 11.4219 24.8451C11.4219 23.5896 12.4397 22.5718 13.6952 22.5718C14.9507 22.5718 15.9684 23.5896 15.9684 24.8451ZM14.4529 24.8451C14.4529 25.2636 14.1137 25.6028 13.6952 25.6028C13.2767 25.6028 12.9374 25.2636 12.9374 24.8451C12.9374 24.4266 13.2767 24.0873 13.6952 24.0873C14.1137 24.0873 14.4529 24.4266 14.4529 24.8451Z" stroke="#000000" stroke-width="0.1"/>
<path fill-rule="evenodd" clip-rule="evenodd" d="M10.6642 29.3916C10.6642 30.647 9.64642 31.6648 8.39095 31.6648C7.13547 31.6648 6.1177 30.647 6.1177 29.3916C6.1177 28.1361 7.13547 27.1183 8.39095 27.1183C9.64642 27.1183 10.6642 28.1361 10.6642 29.3916ZM9.14869 29.3916C9.14869 29.81 8.80944 30.1493 8.39095 30.1493C7.97245 30.1493 7.6332 29.81 7.6332 29.3916C7.6332 28.9731 7.97245 28.6338 8.39095 28.6338C8.80944 28.6338 9.14869 28.9731 9.14869 29.3916Z" stroke="#000000" stroke-width="0.1"/>
<path fill-rule="evenodd" clip-rule="evenodd" d="M13.6952 36.2113C14.9507 36.2113 15.9684 35.1935 15.9684 33.938C15.9684 32.6826 14.9507 31.6648 13.6952 31.6648C12.4397 31.6648 11.4219 32.6826 11.4219 33.938C11.4219 35.1935 12.4397 36.2113 13.6952 36.2113ZM14.4529 33.938C14.4529 34.3565 14.1137 34.6958 13.6952 34.6958C13.2767 34.6958 12.9374 34.3565 12.9374 33.938C12.9374 33.5195 13.2767 33.1803 13.6952 33.1803C14.1137 33.1803 14.4529 33.5195 14.4529 33.938Z" stroke="#000000" stroke-width="0.1"/>
<path fill-rule="evenodd" clip-rule="evenodd" d="M21.2726 29.3916C21.2726 30.647 20.2549 31.6648 18.9994 31.6648C17.7439 31.6648 16.7262 30.647 16.7262 29.3916C16.7262 28.1361 17.7439 27.1183 18.9994 27.1183C20.2549 27.1183 21.2726 28.1361 21.2726 29.3916ZM19.7571 29.3916C19.7571 29.81 19.4179 30.1493 18.9994 30.1493C18.5809 30.1493 18.2417 29.81 18.2417 29.3916C18.2417 28.9731 18.5809 28.6338 18.9994 28.6338C19.4179 28.6338 19.7571 28.9731 19.7571 29.3916Z" stroke="#000000" stroke-width="0.1"/>
<path fill-rule="evenodd" clip-rule="evenodd" d="M3.08672 0.597168C2.66823 0.597168 2.32897 0.936423 2.32897 1.35491C2.32897 1.77341 2.66823 2.11266 3.08672 2.11266H9.14869C10.4042 2.11266 11.4219 3.13043 11.4219 4.3859V9.69013H3.08672C1.83124 9.69013 0.813477 10.7079 0.813477 11.9634V13.4789C0.813477 14.4765 1.45608 15.324 2.34993 15.63L3.09615 37.8032C3.13737 39.0282 4.14239 40 5.3681 40H22.0222C23.248 40 24.253 39.0282 24.2942 37.8032L25.0614 15.0071V11.9634C25.0614 10.7079 24.0436 9.69013 22.7881 9.69013H12.9374V4.3859C12.9374 2.29344 11.2412 0.597168 9.14869 0.597168H3.08672ZM3.08672 11.2056H22.7881C23.2066 11.2056 23.5459 11.5449 23.5459 11.9634L23.5459 14.9816L23.4518 17.7761C23.2251 17.7304 22.9699 17.687 22.6927 17.6523C21.6135 17.5174 20.1447 17.5089 18.718 18.0795C16.3728 19.0176 14.0485 19.0176 11.7034 18.0795C9.36095 17.1426 6.43531 17.0165 3.936 17.7014L3.87039 15.7521H18.9994C19.4179 15.7521 19.7572 15.4129 19.7572 14.9944C19.7572 14.5759 19.4179 14.2366 18.9994 14.2366H3.08672C2.66823 14.2366 2.32897 13.8974 2.32897 13.4789V11.9634C2.32897 11.5449 2.66823 11.2056 3.08672 11.2056ZM22.5047 19.1561C22.8492 19.1992 23.1538 19.2582 23.4 19.3152L22.7796 37.7523C22.7658 38.1606 22.4308 38.4845 22.0222 38.4845H5.3681C4.95953 38.4845 4.62453 38.1606 4.61078 37.7523L3.98863 19.2654C6.23799 18.5555 8.99704 18.6293 11.1405 19.4866C13.847 20.5692 16.5743 20.5692 19.2808 19.4866C20.38 19.047 21.5632 19.0384 22.5047 19.1561Z" stroke="#000000" stroke-width="0.1"/>
</svg>
