<svg width="16" height="16" viewBox="0 0 16 16" fill="none" xmlns="http://www.w3.org/2000/svg">
<path d="M14.3651 14.6327L0.574588 1.86917C0.260472 1.57845 0.240324 1.07606 0.530144 0.760965C0.819964 0.445869 1.32079 0.425658 1.63491 0.716382L15.4254 13.4799C15.7395 13.7706 15.7596 14.273 15.4698 14.5881C15.18 14.9032 14.6792 14.9234 14.3651 14.6327Z" fill="black"/>
<path d="M1.39455 14.3578L14.1724 0.57452C14.4635 0.260568 14.9644 0.24233 15.2773 0.534289C15.5903 0.826247 15.6085 1.32871 15.3174 1.64266L2.53958 15.4259C2.24853 15.7399 1.74763 15.7581 1.43465 15.4661C1.12168 15.1742 1.1035 14.6717 1.39455 14.3578Z" fill="black"/>
</svg>
