<svg width="58" height="38" viewBox="0 0 58 38" fill="none" xmlns="http://www.w3.org/2000/svg">
<g clip-path="url(#clip0_853_1499)">
<path d="M28.5352 0.0986328C28.5983 0.103031 28.6542 0.12184 28.7021 0.15625C28.7263 0.17362 28.7502 0.196073 28.7725 0.224609L28.834 0.330078C28.9658 0.621403 28.8775 0.960311 28.7207 1.33398C28.6822 1.42575 28.6408 1.51804 28.5986 1.61035C28.5567 1.70219 28.5137 1.79471 28.4746 1.88574C28.3968 2.06692 28.3293 2.25026 28.3037 2.4248C28.1675 3.35821 28.5544 4.21789 29.0771 4.93945C30.2597 6.57757 30.3467 9.00955 29.2061 10.7256L29.0918 10.8896C28.9552 11.077 28.8157 11.1398 28.6963 11.1406C28.5731 11.1413 28.4454 11.0769 28.3369 10.9609L28.3145 10.9365C28.1964 10.7997 28.1147 10.6104 28.0996 10.417L28.0977 10.3291C28.1192 9.63744 28.2924 9.07427 28.4092 8.46777C28.5254 7.86446 28.5793 7.23812 28.3428 6.45996C28.1528 5.83544 27.9061 5.22616 27.6855 4.62109C27.4639 4.01295 27.2667 3.40361 27.1689 2.76562C27.0763 2.15614 27.0097 1.46384 27.3076 0.938477C27.3571 0.851349 27.4611 0.722968 27.6006 0.59082C27.7391 0.459612 27.906 0.330059 28.0742 0.236328C28.2445 0.141441 28.405 0.0897066 28.5352 0.0986328Z" fill="#A3A3A3" stroke="white" stroke-width="0.2"/>
<path d="M20.793 5.22314C21.0618 5.13672 21.3611 5.2428 21.4863 5.44678L21.5293 5.54053C21.5317 5.54769 21.5331 5.55385 21.5352 5.56592L21.5361 5.5708C21.5695 5.72638 21.5186 5.87714 21.4307 6.05029C21.3846 6.14111 21.3392 6.21827 21.2881 6.31592C21.2642 6.3616 21.2411 6.40898 21.2197 6.45752L21.1631 6.60791C21.04 7.01201 21.1764 7.44218 21.3652 7.7876C21.4597 7.96023 21.5695 8.12343 21.6738 8.28174C21.7265 8.36161 21.7777 8.44057 21.8262 8.52002L21.9609 8.76221C22.4069 9.66579 22.2063 10.852 21.4863 11.5581C21.3335 11.7079 21.2107 11.8008 21.1143 11.8521C21.017 11.9037 20.9579 11.9071 20.9238 11.8979C20.8927 11.8895 20.8607 11.8651 20.832 11.8062C20.8028 11.746 20.7822 11.6601 20.7705 11.5532C20.7472 11.34 20.763 11.0695 20.7881 10.8149C20.8005 10.6886 20.8149 10.5677 20.8281 10.4614L20.8594 10.1948C20.9007 9.73775 20.743 9.31989 20.5518 8.92432C20.3812 8.57156 20.1889 8.2426 20.0576 7.89697L20.0049 7.74756C19.8163 7.15609 19.8561 6.49633 20.1123 5.93018C20.2576 5.60904 20.4859 5.32192 20.793 5.22314Z" fill="#A3A3A3" stroke="white" stroke-width="0.2"/>
<path d="M36.4863 5.20569C36.6362 5.09061 36.8186 5.0375 37.0449 5.08655L37.1445 5.11389C37.2833 5.1596 37.3727 5.29688 37.4189 5.52795C37.4773 5.82123 37.4526 6.21258 37.4141 6.58557C37.4045 6.67783 37.3946 6.76838 37.3848 6.8551C37.3749 6.94176 37.3653 7.02588 37.3574 7.10315C37.342 7.25514 37.3317 7.39258 37.3398 7.49084C37.3656 7.81019 37.445 8.10553 37.5381 8.38733C37.5845 8.52796 37.6345 8.6665 37.6836 8.80237C37.733 8.93892 37.7811 9.07377 37.8242 9.20862C37.9957 9.74504 38.0845 10.2822 37.8242 10.9313C37.7637 11.0821 37.6386 11.2553 37.4824 11.4098C37.3265 11.5639 37.1469 11.6913 36.9844 11.7584C36.8168 11.8275 36.6975 11.821 36.627 11.7633C36.5532 11.7028 36.487 11.5516 36.5146 11.2194C36.5248 11.1033 36.5509 10.9879 36.582 10.8688C36.6125 10.7522 36.6487 10.6261 36.6748 10.5006C36.7966 9.92427 36.6618 9.39412 36.4717 8.89026C36.3771 8.63967 36.2656 8.38806 36.166 8.14417C36.0654 7.89778 35.9747 7.65427 35.9141 7.40784C35.874 7.24555 35.86 6.99264 35.8838 6.70764C35.9074 6.42423 35.9675 6.11652 36.0684 5.84436C36.17 5.57041 36.3095 5.34155 36.4863 5.20569Z" fill="#A3A3A3" stroke="white" stroke-width="0.2"/>
</g>
<g clip-path="url(#clip1_853_1499)">
<mask id="path-4-inside-1_853_1499" fill="white">
<path d="M57.4124 28.4111C57.3597 28.1662 57.1324 27.5962 56.1684 27.5962H54.0167C53.53 27.5962 53.1353 27.9861 53.1353 28.4667C53.1353 28.9474 53.53 29.3372 54.0167 29.3372H54.0452C52.0965 30.3949 48.8667 31.9354 45.9177 33.2401H42.2433C41.7567 33.2401 41.3619 33.63 41.3619 34.1106C41.3619 34.5913 41.7567 34.9811 42.2433 34.9811H44.259L43.2729 36.2577H14.4644L13.5673 34.9811H36.7984C37.285 34.9811 37.6797 34.5913 37.6797 34.1106C37.6797 33.63 37.285 33.2401 36.7984 33.2401H11.8894C8.95744 31.9354 5.74478 30.3942 3.81105 29.3372H49.6398C50.0295 29.3372 50.3601 29.0867 50.4762 28.7405C50.5432 28.6061 50.5767 28.4519 50.5639 28.2915C50.5489 28.1015 50.1627 23.6039 47.089 21.4808C46.1093 20.8045 44.9822 20.4505 43.7217 20.4168C43.4902 19.763 42.8504 18.2514 41.4959 16.8573C39.8742 15.1887 36.8924 13.3759 31.8999 14.2099C29.4767 14.6152 27.7503 15.7989 26.5199 17.3218C26.051 16.9354 25.1547 16.314 23.8572 15.9192C22.1052 15.3865 19.2388 15.1676 15.5281 17.1514C7.89012 21.2338 6.87338 27.2 6.83419 27.4512C6.82635 27.4998 6.82422 27.5477 6.82493 27.5955H1.70775C0.743028 27.5955 0.515741 28.1662 0.462303 28.4111C0.295578 29.1796 0.962478 29.7165 2.42453 30.5603C3.2952 31.0628 4.51643 31.6975 6.05472 32.4463C8.65534 33.7137 11.313 34.8932 11.3393 34.9044C11.3522 34.9101 11.3657 34.9143 11.3792 34.9199L13.2802 37.6251C13.4448 37.8594 13.7155 37.9994 14.0041 37.9994H43.7103C43.9854 37.9994 44.2447 37.8728 44.4114 37.6567L46.5725 34.858C47.0919 34.6272 49.4602 33.5716 51.7844 32.4456C53.3319 31.6961 54.561 31.0614 55.4374 30.5589C56.9087 29.7151 57.5792 29.1789 57.4131 28.4104L57.4124 28.4111ZM13.9043 24.4526C14.4914 24.7813 15.2923 25.2852 15.7476 25.7693C15.9471 25.9819 16.0938 26.2669 16.1829 26.6166C16.2834 27.0114 16.6425 27.2753 17.0372 27.2753C17.1084 27.2753 17.1811 27.2669 17.2531 27.2486C17.7255 27.131 18.0119 26.6581 17.8929 26.1916C17.7305 25.5547 17.4433 25.0135 17.04 24.5849C16.5299 24.0417 15.7925 23.5406 15.184 23.1754C15.5174 22.8925 15.878 22.6208 16.2591 22.3598C16.993 22.7362 18.1986 23.4456 18.7543 24.15C18.9852 24.4435 19.2923 25.0529 19.4433 26.2887C19.4975 26.7306 19.8779 27.055 20.3175 27.055C20.3525 27.055 20.3881 27.0529 20.4244 27.0487C20.9082 26.991 21.2523 26.5575 21.1939 26.0804C21.0336 24.7707 20.6816 23.7616 20.1465 23.0818C19.6015 22.39 18.7486 21.7813 18.0119 21.3358C18.4679 21.1184 18.9018 20.9516 19.3108 20.8277C20.9339 23.3351 22.7372 23.8714 23.8202 23.9326C23.5658 25.4477 23.5103 26.7778 23.5067 27.5962H12.1616C12.5171 26.4555 13.0992 25.4055 13.905 24.4534L13.9043 24.4526ZM24.19 22.1979C23.8002 22.231 22.5619 22.1803 21.2438 20.5167C23.1077 20.5012 24.1373 21.3752 24.2121 21.4414C24.2619 21.4864 24.3161 21.5244 24.3724 21.5561C24.3068 21.7707 24.247 21.9854 24.1907 22.1979H24.19ZM37.699 22.5526C37.0157 21.9185 35.5373 20.7046 33.7817 20.2092C32.7606 19.9213 31.434 20.0065 30.3004 20.2612C30.693 19.9044 31.1597 19.6075 31.719 19.3985C35.6883 17.9136 37.9555 20.6265 38.7371 21.8242C38.3858 22.0445 38.0396 22.2894 37.699 22.5526ZM28.8782 22.5498C28.9117 22.5265 28.9438 22.5012 28.9744 22.4724C29.4468 22.1592 31.9648 21.5068 33.2979 21.8826C34.596 22.2486 35.7588 23.1634 36.3645 23.7053C36.1016 23.9572 35.8458 24.2169 35.5978 24.4822C35.1304 24.1191 34.3004 23.6342 32.8953 23.238C31.3406 22.7989 29.6577 23.276 28.5761 23.7172C28.6509 23.3225 28.7507 22.9298 28.8789 22.5484L28.8782 22.5498ZM28.3973 27.3358C28.3716 26.8763 28.3545 26.3323 28.3702 25.7482C29.025 25.364 30.9552 24.5033 32.4101 24.9136C33.5401 25.2324 34.1586 25.5962 34.4571 25.8165C33.9883 26.4146 33.5708 27.017 33.2181 27.5962H28.4115C28.4066 27.5125 28.4023 27.4273 28.3973 27.3365V27.3358ZM48.6779 27.5955H47.0748C46.871 26.0051 45.9148 23.5934 43.3527 23.5934C41.897 23.5934 40.3196 24.3225 38.6616 25.7602C38.2961 26.0776 38.2604 26.6272 38.5811 26.9889C38.9024 27.3499 39.4596 27.3858 39.8251 27.0691C41.1325 25.9354 42.3523 25.3358 43.3527 25.3358C44.7071 25.3358 45.1482 26.7911 45.2885 27.5969H35.3178C36.9088 25.3408 39.3292 23.0529 41.4945 22.4541C43.3505 21.941 44.891 22.0923 46.0701 22.9044C47.7744 24.0776 48.4356 26.3654 48.6765 27.5969L48.6779 27.5955ZM32.1935 15.9263C38.7934 14.8228 41.2123 18.9453 41.8985 20.5716C41.6113 20.6258 41.3192 20.694 41.0214 20.7771C40.7763 20.8446 40.5305 20.9305 40.2846 21.0283C39.9092 20.4906 39.186 19.5871 38.1215 18.8087C36.606 17.7011 34.6445 16.2767 31.3791 17.6595C26.7386 19.6244 26.9766 24.9713 26.7821 27.5962H25.2694C25.278 25.0438 25.8195 16.9917 32.1935 15.927V15.9263ZM16.3667 18.6828C21.8922 15.7292 25.0243 18.3028 25.5359 18.782C25.34 19.131 25.1625 19.4885 25.0022 19.851C23.9342 19.1282 20.8327 17.6166 16.2506 20.2943C16.2036 20.3218 16.1565 20.3492 16.1081 20.3788C13.0237 22.2282 11.0807 24.6553 10.3269 27.5962H8.60048C8.78003 26.7806 10.0711 22.0487 16.3674 18.6835L16.3667 18.6828Z"/>
</mask>
<path d="M57.4124 28.4111C57.3597 28.1662 57.1324 27.5962 56.1684 27.5962H54.0167C53.53 27.5962 53.1353 27.9861 53.1353 28.4667C53.1353 28.9474 53.53 29.3372 54.0167 29.3372H54.0452C52.0965 30.3949 48.8667 31.9354 45.9177 33.2401H42.2433C41.7567 33.2401 41.3619 33.63 41.3619 34.1106C41.3619 34.5913 41.7567 34.9811 42.2433 34.9811H44.259L43.2729 36.2577H14.4644L13.5673 34.9811H36.7984C37.285 34.9811 37.6797 34.5913 37.6797 34.1106C37.6797 33.63 37.285 33.2401 36.7984 33.2401H11.8894C8.95744 31.9354 5.74478 30.3942 3.81105 29.3372H49.6398C50.0295 29.3372 50.3601 29.0867 50.4762 28.7405C50.5432 28.6061 50.5767 28.4519 50.5639 28.2915C50.5489 28.1015 50.1627 23.6039 47.089 21.4808C46.1093 20.8045 44.9822 20.4505 43.7217 20.4168C43.4902 19.763 42.8504 18.2514 41.4959 16.8573C39.8742 15.1887 36.8924 13.3759 31.8999 14.2099C29.4767 14.6152 27.7503 15.7989 26.5199 17.3218C26.051 16.9354 25.1547 16.314 23.8572 15.9192C22.1052 15.3865 19.2388 15.1676 15.5281 17.1514C7.89012 21.2338 6.87338 27.2 6.83419 27.4512C6.82635 27.4998 6.82422 27.5477 6.82493 27.5955H1.70775C0.743028 27.5955 0.515741 28.1662 0.462303 28.4111C0.295578 29.1796 0.962478 29.7165 2.42453 30.5603C3.2952 31.0628 4.51643 31.6975 6.05472 32.4463C8.65534 33.7137 11.313 34.8932 11.3393 34.9044C11.3522 34.9101 11.3657 34.9143 11.3792 34.9199L13.2802 37.6251C13.4448 37.8594 13.7155 37.9994 14.0041 37.9994H43.7103C43.9854 37.9994 44.2447 37.8728 44.4114 37.6567L46.5725 34.858C47.0919 34.6272 49.4602 33.5716 51.7844 32.4456C53.3319 31.6961 54.561 31.0614 55.4374 30.5589C56.9087 29.7151 57.5792 29.1789 57.4131 28.4104L57.4124 28.4111ZM13.9043 24.4526C14.4914 24.7813 15.2923 25.2852 15.7476 25.7693C15.9471 25.9819 16.0938 26.2669 16.1829 26.6166C16.2834 27.0114 16.6425 27.2753 17.0372 27.2753C17.1084 27.2753 17.1811 27.2669 17.2531 27.2486C17.7255 27.131 18.0119 26.6581 17.8929 26.1916C17.7305 25.5547 17.4433 25.0135 17.04 24.5849C16.5299 24.0417 15.7925 23.5406 15.184 23.1754C15.5174 22.8925 15.878 22.6208 16.2591 22.3598C16.993 22.7362 18.1986 23.4456 18.7543 24.15C18.9852 24.4435 19.2923 25.0529 19.4433 26.2887C19.4975 26.7306 19.8779 27.055 20.3175 27.055C20.3525 27.055 20.3881 27.0529 20.4244 27.0487C20.9082 26.991 21.2523 26.5575 21.1939 26.0804C21.0336 24.7707 20.6816 23.7616 20.1465 23.0818C19.6015 22.39 18.7486 21.7813 18.0119 21.3358C18.4679 21.1184 18.9018 20.9516 19.3108 20.8277C20.9339 23.3351 22.7372 23.8714 23.8202 23.9326C23.5658 25.4477 23.5103 26.7778 23.5067 27.5962H12.1616C12.5171 26.4555 13.0992 25.4055 13.905 24.4534L13.9043 24.4526ZM24.19 22.1979C23.8002 22.231 22.5619 22.1803 21.2438 20.5167C23.1077 20.5012 24.1373 21.3752 24.2121 21.4414C24.2619 21.4864 24.3161 21.5244 24.3724 21.5561C24.3068 21.7707 24.247 21.9854 24.1907 22.1979H24.19ZM37.699 22.5526C37.0157 21.9185 35.5373 20.7046 33.7817 20.2092C32.7606 19.9213 31.434 20.0065 30.3004 20.2612C30.693 19.9044 31.1597 19.6075 31.719 19.3985C35.6883 17.9136 37.9555 20.6265 38.7371 21.8242C38.3858 22.0445 38.0396 22.2894 37.699 22.5526ZM28.8782 22.5498C28.9117 22.5265 28.9438 22.5012 28.9744 22.4724C29.4468 22.1592 31.9648 21.5068 33.2979 21.8826C34.596 22.2486 35.7588 23.1634 36.3645 23.7053C36.1016 23.9572 35.8458 24.2169 35.5978 24.4822C35.1304 24.1191 34.3004 23.6342 32.8953 23.238C31.3406 22.7989 29.6577 23.276 28.5761 23.7172C28.6509 23.3225 28.7507 22.9298 28.8789 22.5484L28.8782 22.5498ZM28.3973 27.3358C28.3716 26.8763 28.3545 26.3323 28.3702 25.7482C29.025 25.364 30.9552 24.5033 32.4101 24.9136C33.5401 25.2324 34.1586 25.5962 34.4571 25.8165C33.9883 26.4146 33.5708 27.017 33.2181 27.5962H28.4115C28.4066 27.5125 28.4023 27.4273 28.3973 27.3365V27.3358ZM48.6779 27.5955H47.0748C46.871 26.0051 45.9148 23.5934 43.3527 23.5934C41.897 23.5934 40.3196 24.3225 38.6616 25.7602C38.2961 26.0776 38.2604 26.6272 38.5811 26.9889C38.9024 27.3499 39.4596 27.3858 39.8251 27.0691C41.1325 25.9354 42.3523 25.3358 43.3527 25.3358C44.7071 25.3358 45.1482 26.7911 45.2885 27.5969H35.3178C36.9088 25.3408 39.3292 23.0529 41.4945 22.4541C43.3505 21.941 44.891 22.0923 46.0701 22.9044C47.7744 24.0776 48.4356 26.3654 48.6765 27.5969L48.6779 27.5955ZM32.1935 15.9263C38.7934 14.8228 41.2123 18.9453 41.8985 20.5716C41.6113 20.6258 41.3192 20.694 41.0214 20.7771C40.7763 20.8446 40.5305 20.9305 40.2846 21.0283C39.9092 20.4906 39.186 19.5871 38.1215 18.8087C36.606 17.7011 34.6445 16.2767 31.3791 17.6595C26.7386 19.6244 26.9766 24.9713 26.7821 27.5962H25.2694C25.278 25.0438 25.8195 16.9917 32.1935 15.927V15.9263ZM16.3667 18.6828C21.8922 15.7292 25.0243 18.3028 25.5359 18.782C25.34 19.131 25.1625 19.4885 25.0022 19.851C23.9342 19.1282 20.8327 17.6166 16.2506 20.2943C16.2036 20.3218 16.1565 20.3492 16.1081 20.3788C13.0237 22.2282 11.0807 24.6553 10.3269 27.5962H8.60048C8.78003 26.7806 10.0711 22.0487 16.3674 18.6835L16.3667 18.6828Z" fill="#A3A3A3" stroke="white" stroke-width="0.4" mask="url(#path-4-inside-1_853_1499)"/>
</g>
<defs>
<clipPath id="clip0_853_1499">
<rect width="18.2979" height="12" fill="white" transform="translate(19.7886)"/>
</clipPath>
<clipPath id="clip1_853_1499">
<rect width="57" height="24" fill="white" transform="translate(0.4375 14)"/>
</clipPath>
</defs>
</svg>
