<svg width="33" height="33" viewBox="0 0 33 33" fill="none" xmlns="http://www.w3.org/2000/svg">
<g clip-path="url(#clip0_771_1694)">
<path d="M2.91797 7.5078L4.76156 8.5722C7.11896 5.12757 10.9614 2.77588 15.3591 2.44824V0.32666C10.1705 0.660768 5.64581 3.43167 2.91797 7.5078Z" fill="#FFC869"/>
<path d="M4.76156 24.4766L2.91797 25.541C5.64581 29.6171 10.1705 32.388 15.3591 32.7221V30.6005C10.9614 30.2728 7.11889 27.9211 4.76156 24.4766Z" fill="#FFC869"/>
<path d="M17.4766 0.32666V2.4483C21.8742 2.77594 25.7167 5.12757 28.0741 8.57214L29.9177 7.50774C27.1898 3.43167 22.6651 0.660768 17.4766 0.32666Z" fill="white"/>
<path d="M3.69914 10.4039L1.85784 9.34082C0.787221 11.5066 0.18457 13.9449 0.18457 16.5244C0.18457 19.104 0.787221 21.5423 1.85784 23.708L3.69908 22.645C2.80405 20.7925 2.3019 18.716 2.3019 16.5244C2.3019 14.3329 2.80405 12.2564 3.69914 10.4039Z" fill="#FFC869"/>
<path d="M17.4766 18.3584V28.4759C21.0923 28.1583 24.253 26.2303 26.2348 23.415L17.4766 18.3584ZM20.9485 24.372C20.4422 24.6643 19.7947 24.4908 19.5024 23.9845C19.21 23.4781 19.3835 22.8307 19.8899 22.5383C20.3962 22.246 21.0437 22.4195 21.336 22.9258C21.6283 23.4321 21.4549 24.0796 20.9485 24.372Z" fill="white"/>
<path d="M6.60059 23.415C8.58247 26.2303 11.7431 28.1582 15.3589 28.4759V18.3584L6.60059 23.415ZM13.3331 23.9845C13.0408 24.4909 12.3934 24.6644 11.887 24.372C11.3806 24.0797 11.2071 23.4322 11.4995 22.9259C11.7918 22.4195 12.4393 22.246 12.9456 22.5384C13.4519 22.8308 13.6255 23.4782 13.3331 23.9845Z" fill="#FFC869"/>
<path d="M5.5389 11.4666C4.8209 13.0045 4.41895 14.7184 4.41895 16.5247C4.41895 18.331 4.82097 20.0448 5.53896 21.5828L14.2999 16.5247L5.5389 11.4666ZM8.41474 17.5834C7.8301 17.5834 7.35604 17.1094 7.35604 16.5247C7.35604 15.94 7.83003 15.466 8.41474 15.466C8.99938 15.466 9.47344 15.94 9.47344 16.5247C9.47344 17.1094 8.99938 17.5834 8.41474 17.5834Z" fill="#FFC869"/>
<path d="M30.9775 9.34082L29.1362 10.4039C30.0314 12.2564 30.5335 14.3329 30.5335 16.5244C30.5335 18.716 30.0314 20.7925 29.1362 22.645L30.9775 23.708C32.0482 21.5423 32.6508 19.104 32.6508 16.5244C32.6508 13.9449 32.0482 11.5066 30.9775 9.34082Z" fill="white"/>
<path d="M17.4766 4.57373V14.6911L26.2348 9.63456C24.253 6.81928 21.0923 4.89142 17.4766 4.57373ZM21.336 10.1238C21.0436 10.6302 20.3962 10.8037 19.8898 10.5113C19.3835 10.2189 19.2099 9.57147 19.5023 9.06514C19.7946 8.55881 20.4421 8.38532 20.9485 8.67764C21.4549 8.96996 21.6284 9.61744 21.336 10.1238Z" fill="white"/>
<path d="M6.60059 9.63456L15.3589 14.6912V4.57373C11.7431 4.89135 8.58247 6.81928 6.60059 9.63456ZM12.9456 10.5113C12.4393 10.8036 11.7918 10.6301 11.4995 10.1238C11.2071 9.61744 11.3806 8.96996 11.887 8.67764C12.3933 8.38532 13.0408 8.55881 13.3331 9.06514C13.6255 9.57147 13.452 10.2189 12.9456 10.5113Z" fill="#FFC869"/>
<path d="M28.0731 24.4766C25.7157 27.9212 21.8733 30.2729 17.4756 30.6005V32.7222C22.6641 32.3881 27.1888 29.6172 29.9167 25.541L28.0731 24.4766Z" fill="white"/>
<path d="M27.2957 11.4666L18.5347 16.5247L27.2956 21.5828C28.0136 20.0448 28.4156 18.331 28.4156 16.5247C28.4156 14.7184 28.0137 13.0045 27.2957 11.4666ZM24.4198 17.5834C23.8352 17.5834 23.3611 17.1094 23.3611 16.5247C23.3611 15.94 23.8351 15.466 24.4198 15.466C25.0045 15.466 25.4785 15.94 25.4785 16.5247C25.4785 17.1094 25.0045 17.5834 24.4198 17.5834Z" fill="white"/>
</g>
<defs>
<clipPath id="clip0_771_1694">
<rect width="32.466" height="32.466" fill="white" transform="translate(0.18457 0.291748)"/>
</clipPath>
</defs>
</svg>
