<svg width="34" height="33" viewBox="0 0 34 33" fill="none" xmlns="http://www.w3.org/2000/svg">
<g clip-path="url(#clip0_771_1655)">
<path d="M3.57812 7.50731L5.42171 8.57172C7.77911 5.12708 11.6216 2.77539 16.0193 2.44775V0.326172C10.8307 0.66028 6.30597 3.43118 3.57812 7.50731Z" fill="black"/>
<path d="M5.42171 24.4761L3.57812 25.5405C6.30597 29.6166 10.8307 32.3875 16.0193 32.7216V30.6C11.6216 30.2723 7.77905 27.9206 5.42171 24.4761Z" fill="black"/>
<path d="M18.1367 0.326172V2.44781C22.5344 2.77545 26.3769 5.12708 28.7343 8.57165L30.5779 7.50725C27.85 3.43118 23.3253 0.66028 18.1367 0.326172Z" fill="black"/>
<path d="M4.3593 10.4034L2.51799 9.34033C1.44738 11.5061 0.844727 13.9444 0.844727 16.5239C0.844727 19.1035 1.44738 21.5418 2.51799 23.7076L4.35924 22.6445C3.4642 20.792 2.96206 18.7155 2.96206 16.5239C2.96206 14.3324 3.4642 12.2559 4.3593 10.4034Z" fill="black"/>
<path d="M18.1367 18.3579V28.4754C21.7525 28.1578 24.9132 26.2298 26.895 23.4146L18.1367 18.3579ZM21.6087 24.3715C21.1024 24.6638 20.4549 24.4903 20.1625 23.984C19.8702 23.4776 20.0437 22.8302 20.55 22.5378C21.0564 22.2455 21.7039 22.419 21.9962 22.9253C22.2884 23.4316 22.115 24.0791 21.6087 24.3715Z" fill="black"/>
<path d="M7.26074 23.4146C9.24263 26.2298 12.4032 28.1577 16.019 28.4754V18.3579L7.26074 23.4146ZM13.9933 23.984C13.701 24.4904 13.0535 24.6639 12.5471 24.3715C12.0408 24.0792 11.8672 23.4317 12.1596 22.9254C12.4519 22.419 13.0994 22.2455 13.6058 22.5379C14.1121 22.8303 14.2856 23.4777 13.9933 23.984Z" fill="black"/>
<path d="M6.19905 11.4661C5.48106 13.004 5.0791 14.7179 5.0791 16.5242C5.0791 18.3305 5.48112 20.0443 6.19912 21.5823L14.9601 16.5242L6.19905 11.4661ZM9.0749 17.5829C8.49025 17.5829 8.0162 17.1089 8.0162 16.5242C8.0162 15.9395 8.49019 15.4655 9.0749 15.4655C9.65954 15.4655 10.1336 15.9395 10.1336 16.5242C10.1336 17.1089 9.65954 17.5829 9.0749 17.5829Z" fill="black"/>
<path d="M31.6377 9.34033L29.7964 10.4034C30.6915 12.2559 31.1936 14.3324 31.1936 16.5239C31.1936 18.7155 30.6915 20.792 29.7964 22.6445L31.6377 23.7076C32.7083 21.5418 33.311 19.1035 33.311 16.5239C33.311 13.9444 32.7083 11.5061 31.6377 9.34033Z" fill="black"/>
<path d="M18.1367 4.57324V14.6907L26.895 9.63407C24.9131 6.81879 21.7525 4.89093 18.1367 4.57324ZM21.9961 10.1233C21.7038 10.6297 21.0563 10.8032 20.55 10.5108C20.0437 10.2184 19.8701 9.57098 20.1625 9.06465C20.4547 8.55832 21.1022 8.38483 21.6086 8.67715C22.115 8.96947 22.2886 9.61695 21.9961 10.1233Z" fill="black"/>
<path d="M7.26074 9.63407L16.019 14.6907V4.57324C12.4032 4.89086 9.24263 6.81879 7.26074 9.63407ZM13.6058 10.5108C13.0994 10.8031 12.4519 10.6296 12.1596 10.1233C11.8673 9.61695 12.0408 8.96947 12.5471 8.67715C13.0535 8.38483 13.7009 8.55832 13.9933 9.06465C14.2856 9.57098 14.1122 10.2185 13.6058 10.5108Z" fill="black"/>
<path d="M28.7333 24.4761C26.3759 27.9207 22.5334 30.2724 18.1357 30.6V32.7217C23.3243 32.3876 27.849 29.6167 30.5769 25.5405L28.7333 24.4761Z" fill="black"/>
<path d="M27.9558 11.4661L19.1948 16.5242L27.9558 21.5823C28.6738 20.0443 29.0758 18.3305 29.0758 16.5242C29.0758 14.7179 28.6738 13.004 27.9558 11.4661ZM25.08 17.5829C24.4953 17.5829 24.0213 17.1089 24.0213 16.5242C24.0213 15.9395 24.4953 15.4655 25.08 15.4655C25.6647 15.4655 26.1387 15.9395 26.1387 16.5242C26.1387 17.1089 25.6647 17.5829 25.08 17.5829Z" fill="black"/>
</g>
<defs>
<clipPath id="clip0_771_1655">
<rect width="32.466" height="32.466" fill="white" transform="translate(0.844727 0.29126)"/>
</clipPath>
</defs>
</svg>
