<svg width="33" height="33" viewBox="0 0 33 33" fill="none" xmlns="http://www.w3.org/2000/svg">
<g clip-path="url(#clip0_771_2546)">
<path d="M2.91797 7.50756L4.76156 8.57196C7.11896 5.12733 10.9614 2.77563 15.3591 2.44799V0.326416C10.1705 0.660524 5.64581 3.43142 2.91797 7.50756Z" fill="black"/>
<path d="M4.76156 24.4763L2.91797 25.5407C5.64581 29.6168 10.1705 32.3877 15.3591 32.7218V30.6002C10.9614 30.2725 7.11889 27.9208 4.76156 24.4763Z" fill="black"/>
<path d="M17.4766 0.326416V2.44806C21.8742 2.7757 25.7167 5.12733 28.0741 8.5719L29.9177 7.50749C27.1898 3.43142 22.6651 0.660524 17.4766 0.326416Z" fill="#7E5300"/>
<path d="M3.69914 10.4036L1.85784 9.34058C0.787221 11.5064 0.18457 13.9447 0.18457 16.5242C0.18457 19.1037 0.787221 21.542 1.85784 23.7078L3.69908 22.6447C2.80405 20.7923 2.3019 18.7158 2.3019 16.5242C2.3019 14.3326 2.80405 12.2561 3.69914 10.4036Z" fill="black"/>
<path d="M17.4766 18.3582V28.4757C21.0923 28.1581 24.253 26.2301 26.2348 23.4149L17.4766 18.3582ZM20.9485 24.3718C20.4422 24.6641 19.7947 24.4906 19.5024 23.9843C19.21 23.478 19.3835 22.8305 19.8899 22.5382C20.3962 22.2458 21.0437 22.4193 21.336 22.9257C21.6283 23.4319 21.4549 24.0794 20.9485 24.3718Z" fill="#7E5300"/>
<path d="M6.60059 23.4149C8.58247 26.2301 11.7431 28.158 15.3589 28.4757V18.3582L6.60059 23.4149ZM13.3331 23.9843C13.0408 24.4907 12.3934 24.6642 11.887 24.3718C11.3806 24.0795 11.2071 23.432 11.4995 22.9257C11.7918 22.4193 12.4393 22.2458 12.9456 22.5382C13.4519 22.8306 13.6255 23.478 13.3331 23.9843Z" fill="black"/>
<path d="M5.5389 11.4663C4.8209 13.0043 4.41895 14.7181 4.41895 16.5244C4.41895 18.3307 4.82097 20.0446 5.53896 21.5825L14.2999 16.5244L5.5389 11.4663ZM8.41474 17.5831C7.8301 17.5831 7.35604 17.1091 7.35604 16.5244C7.35604 15.9397 7.83003 15.4657 8.41474 15.4657C8.99938 15.4657 9.47344 15.9397 9.47344 16.5244C9.47344 17.1091 8.99938 17.5831 8.41474 17.5831Z" fill="black"/>
<path d="M30.9775 9.34058L29.1362 10.4036C30.0314 12.2561 30.5335 14.3326 30.5335 16.5242C30.5335 18.7158 30.0314 20.7923 29.1362 22.6447L30.9775 23.7078C32.0482 21.542 32.6508 19.1037 32.6508 16.5242C32.6508 13.9447 32.0482 11.5064 30.9775 9.34058Z" fill="#7E5300"/>
<path d="M17.4766 4.57343V14.6908L26.2348 9.63426C24.253 6.81897 21.0923 4.89111 17.4766 4.57343ZM21.336 10.1235C21.0436 10.6299 20.3962 10.8033 19.8898 10.511C19.3835 10.2186 19.2099 9.57116 19.5023 9.06483C19.7946 8.5585 20.4421 8.38501 20.9485 8.67733C21.4549 8.96965 21.6284 9.61714 21.336 10.1235Z" fill="#7E5300"/>
<path d="M6.60059 9.63426L15.3589 14.6909V4.57343C11.7431 4.89105 8.58247 6.81897 6.60059 9.63426ZM12.9456 10.511C12.4393 10.8033 11.7918 10.6298 11.4995 10.1235C11.2071 9.61713 11.3806 8.96965 11.887 8.67733C12.3933 8.38501 13.0408 8.5585 13.3331 9.06483C13.6255 9.57116 13.452 10.2186 12.9456 10.511Z" fill="black"/>
<path d="M28.0731 24.4763C25.7157 27.9209 21.8733 30.2726 17.4756 30.6002V32.7219C22.6641 32.3878 27.1888 29.6169 29.9167 25.5407L28.0731 24.4763Z" fill="#7E5300"/>
<path d="M27.2957 11.4663L18.5347 16.5244L27.2956 21.5825C28.0136 20.0446 28.4156 18.3307 28.4156 16.5244C28.4156 14.7181 28.0137 13.0043 27.2957 11.4663ZM24.4198 17.5831C23.8352 17.5831 23.3611 17.1091 23.3611 16.5244C23.3611 15.9397 23.8351 15.4657 24.4198 15.4657C25.0045 15.4657 25.4785 15.9397 25.4785 16.5244C25.4785 17.1091 25.0045 17.5831 24.4198 17.5831Z" fill="#7E5300"/>
</g>
<defs>
<clipPath id="clip0_771_2546">
<rect width="32.466" height="32.466" fill="white" transform="translate(0.18457 0.291473)"/>
</clipPath>
</defs>
</svg>
